<svg xmlns="http://www.w3.org/2000/svg" xmlns:xlink="http://www.w3.org/1999/xlink" width="27.81" height="20" viewBox="0 0 27.81 20"><defs><clipPath><rect width="27.81" height="20" fill="#fff"></rect></clipPath></defs><g transform="translate(0 0)"><g transform="translate(0 0)" clip-path="url(#clip-path)"><path d="M24.381,2.5A11.774,11.774,0,0,0,17.69,0l-.333.381A15.846,15.846,0,0,1,23.286,3.4a19.409,19.409,0,0,0-7.167-2.286,20.146,20.146,0,0,0-4.81.048l-.4.048a17.88,17.88,0,0,0-5.4,1.5c-.881.4-1.4.69-1.4.69A16.063,16.063,0,0,1,10.357.286L10.119,0a11.774,11.774,0,0,0-6.69,2.5A31.885,31.885,0,0,0,0,16.381S2,19.833,7.262,20c0,0,.881-1.071,1.6-1.976a7.405,7.405,0,0,1-4.167-2.81l.667.4.1.071.093.054.028.012.093.054a13.954,13.954,0,0,0,1.738.81,19.987,19.987,0,0,0,3.5,1.024,16.679,16.679,0,0,0,6.167.024,15.671,15.671,0,0,0,3.452-1.024,13.625,13.625,0,0,0,2.738-1.4,7.513,7.513,0,0,1-4.31,2.833c.714.9,1.571,1.929,1.571,1.929,5.262-.167,7.286-3.619,7.286-3.619A31.885,31.885,0,0,0,24.381,2.5M9.452,14.167a2.552,2.552,0,0,1-2.429-2.643A2.537,2.537,0,0,1,9.452,8.881a2.521,2.521,0,0,1,2.429,2.643,2.537,2.537,0,0,1-2.429,2.643m8.69,0a2.552,2.552,0,0,1-2.429-2.643,2.537,2.537,0,0,1,2.429-2.643,2.537,2.537,0,0,1,2.429,2.643,2.537,2.537,0,0,1-2.429,2.643" transform="translate(0 0)" fill="black"></path></g></g></svg>