<svg xmlns="http://www.w3.org/2000/svg" xmlns:xlink="http://www.w3.org/1999/xlink" width="500" zoomAndPan="magnify" viewBox="0 0 375 374.999991" height="500" preserveAspectRatio="xMidYMid meet" version="1.0"><defs><clipPath id="aa60970b1c"><path d="M 36 37 L 341 37 L 341 339.796875 L 36 339.796875 Z M 36 37 " clip-rule="nonzero"/></clipPath><clipPath id="d26fb73cf3"><path d="M 36 37 L 341 37 L 341 339.796875 L 36 339.796875 Z M 36 37 " clip-rule="nonzero"/></clipPath></defs><g clip-path="url(#aa60970b1c)"><path fill="#000000" d="M 41.203125 120.046875 C 33.773438 125.496094 37.511719 138.121094 38.5625 145.597656 C 38.601562 145.816406 38.648438 145.992188 38.71875 146.199219 C 38.203125 148.148438 39.203125 150.460938 41.785156 150.265625 C 48.949219 149.730469 55.597656 152.707031 57.628906 160.023438 C 59.960938 168.425781 51.710938 172.769531 44.792969 173.71875 C 44.636719 173.746094 44.496094 173.785156 44.339844 173.824219 C 42.449219 173.390625 40.113281 174.410156 40.113281 176.941406 C 40.074219 185.484375 39.667969 194.015625 40.679688 202.507812 C 40.738281 203.160156 40.984375 203.714844 41.3125 204.160156 C 41.074219 205.644531 41.738281 207.136719 43.675781 207.402344 C 60.429688 209.71875 63.613281 230.996094 45.902344 234.859375 C 45.101562 235.039062 44.527344 235.445312 44.121094 235.929688 C 42.25 235.59375 40.113281 236.679688 40.113281 239.203125 C 40.113281 239.203125 40.183594 254.851562 40.679688 262.8125 C 40.699219 263.117188 40.738281 263.386719 40.828125 263.652344 C 40.558594 265.472656 41.628906 267.519531 44.011719 267.546875 C 59.210938 267.628906 65.296875 290.894531 47.902344 293.109375 C 47.238281 293.195312 46.683594 293.445312 46.210938 293.800781 C 44.605469 293.867188 42.984375 294.9375 42.894531 297.003906 C 42.339844 309.324219 41.804688 321.664062 41.253906 333.972656 C 39.964844 335.929688 40.867188 339.242188 44.011719 339.242188 C 44.011719 339.242188 70.707031 339.242188 81.828125 339.242188 C 82.382812 339.242188 82.878906 339.132812 83.285156 338.957031 C 84.964844 339.597656 86.953125 339.0625 87.28125 336.800781 C 88.933594 325.171875 106.378906 317.609375 108.644531 332.902344 C 108.664062 333.0625 108.734375 333.199219 108.753906 333.328125 C 108.308594 335.238281 109.328125 337.582031 111.867188 337.582031 C 122.277344 337.621094 132.648438 338.132812 143.015625 339.242188 C 143.601562 339.3125 144.066406 339.222656 144.480469 339.0625 C 146.113281 339.003906 147.777344 337.9375 148.023438 335.910156 C 149.765625 321.683594 167.890625 319.617188 171.246094 333.558594 C 169.601562 335.574219 170.386719 339.292969 173.609375 338.976562 C 183.980469 337.9375 194.367188 337.816406 204.757812 337.285156 C 205.71875 337.246094 206.449219 336.867188 206.984375 336.335938 C 208.113281 335.890625 209.050781 334.910156 209.210938 333.417969 C 209.921875 326.191406 215.683594 319.238281 223.519531 320.328125 C 231.769531 321.484375 231.96875 328.535156 231.75 335.070312 C 231.699219 335.75 231.859375 336.316406 232.125 336.78125 C 232.453125 338.105469 233.5 339.242188 235.351562 339.242188 C 235.351562 339.242188 253.152344 339.242188 262.046875 339.242188 C 263.074219 339.242188 263.847656 338.886719 264.410156 338.332031 C 265.34375 337.847656 266.074219 336.929688 266.234375 335.644531 C 267.035156 328.375 271.644531 321.238281 278.601562 318.585938 C 289.285156 314.542969 291.445312 325.28125 292.355469 332.84375 C 292.394531 333.042969 292.441406 333.199219 292.480469 333.367188 C 292.195312 334.890625 292.867188 336.484375 294.816406 336.910156 C 308.730469 339.777344 322.769531 338.53125 336.847656 338.402344 C 339.5 338.402344 340.5 335.890625 339.925781 333.953125 L 339.925781 300.027344 C 341.746094 297.875 339.964844 293.640625 336.542969 294.621094 C 328.882812 296.804688 323.34375 291.484375 321.542969 284.378906 C 319.316406 275.597656 325.796875 269.367188 334.089844 268.371094 C 334.355469 268.339844 334.601562 268.28125 334.851562 268.210938 C 336.433594 268.074219 338.027344 267.035156 338.253906 265.027344 C 339.410156 254.585938 339.324219 243.925781 337.292969 233.59375 C 337.292969 233.566406 337.292969 233.546875 337.292969 233.546875 C 337.402344 231.796875 336.34375 229.964844 334.089844 230.035156 C 315.359375 230.429688 320.671875 209.6875 335.742188 208.628906 C 337.652344 208.492188 338.964844 207.207031 339.074219 205.289062 C 339.679688 195.726562 338.9375 186.214844 338.808594 176.671875 C 338.808594 176.367188 338.769531 176.082031 338.699219 175.8125 C 338.71875 174.121094 337.652344 172.433594 335.472656 172.5 C 319.050781 173.054688 315.871094 148.355469 333.800781 149.148438 C 335.355469 149.214844 336.34375 148.375 336.789062 147.289062 C 337.332031 146.753906 337.699219 145.992188 337.699219 144.976562 C 337.652344 136.628906 337.1875 128.324219 337.136719 119.980469 C 337.136719 119.117188 336.867188 118.445312 336.453125 117.933594 C 335.828125 116.628906 334.445312 115.597656 332.644531 115.914062 C 323.054688 117.625 319.761719 92.304688 333.246094 91.613281 C 333.890625 91.59375 334.425781 91.394531 334.871094 91.128906 C 336.207031 90.8125 337.382812 89.773438 337.433594 88.011719 C 337.757812 73.429688 336.085938 58.90625 337.957031 44.390625 C 338.054688 43.71875 337.957031 43.195312 337.738281 42.71875 C 337.472656 41.382812 336.453125 40.296875 334.621094 40.476562 C 322.34375 41.789062 309.996094 41.878906 297.648438 41.878906 C 297.292969 41.878906 296.984375 41.949219 296.6875 42.007812 C 295.046875 42.078125 293.371094 43.144531 293.195312 45.210938 C 292.589844 52.347656 285.8125 56.421875 279.222656 57.105469 C 271.101562 57.957031 269.300781 53.238281 268.992188 46.328125 C 268.972656 45.410156 268.605469 44.695312 268.121094 44.191406 C 267.726562 43.035156 266.699219 42.125 265.113281 42.164062 C 255.507812 42.34375 245.957031 41.433594 236.507812 39.761719 C 235.222656 39.546875 234.125 40.011719 233.394531 40.761719 C 232.484375 41.277344 231.789062 42.214844 231.75 43.550781 C 231.382812 52.152344 226.210938 59.378906 217.195312 60.042969 C 208.410156 60.683594 203.710938 53.527344 203.9375 45.496094 C 203.957031 44.015625 203.195312 43.054688 202.175781 42.589844 C 201.671875 41.789062 200.78125 41.234375 199.484375 41.324219 C 191.183594 41.878906 182.910156 42.324219 174.640625 41.363281 C 172.699219 40.671875 170.027344 41.679688 169.980469 44.390625 C 169.871094 51.90625 165.644531 58.636719 157.609375 59.152344 C 149.339844 59.636719 145.867188 52.0625 146.09375 44.925781 C 146.09375 44.527344 146.015625 44.164062 145.9375 43.835938 C 145.746094 42.304688 144.6875 40.878906 142.75 40.761719 C 133.65625 40.277344 124.574219 40.722656 115.46875 40.761719 C 115.34375 40.761719 115.203125 40.792969 115.046875 40.8125 C 113.136719 40.851562 111.019531 42.472656 111.421875 44.992188 C 112.421875 51.152344 106.734375 54.664062 101.253906 55 C 94.15625 55.414062 90.109375 50.28125 90.171875 43.550781 C 90.199219 41.71875 89.023438 40.703125 87.636719 40.414062 C 87.417969 40.277344 87.171875 40.136719 86.886719 40.050781 C 72.488281 35.183594 56.847656 39.96875 42.339844 41.878906 C 41.757812 41.949219 41.273438 42.144531 40.855469 42.433594 C 39.878906 42.925781 39.113281 43.835938 39.007812 45.210938 C 37.976562 58.191406 37.976562 71.136719 39.007812 84.117188 C 39.136719 85.917969 40.410156 87.460938 42.339844 87.460938 C 51.78125 87.429688 59.25 92.234375 59.539062 102.203125 C 59.855469 113.53125 48.199219 114.867188 41.203125 120.046875 " fill-opacity="1" fill-rule="nonzero"/></g><path fill="#8ae1ff" d="M 68.90625 204.46875 C 69.105469 204.289062 68.867188 203.578125 68.265625 202.402344 C 67.949219 201.816406 67.550781 201.117188 67.058594 200.3125 C 66.503906 199.554688 65.839844 198.664062 65.078125 197.703125 C 64.304688 196.734375 63.226562 195.90625 62.1875 194.886719 C 61.070312 193.957031 59.714844 193.195312 58.378906 192.304688 C 57.648438 191.839844 56.984375 191.523438 56.292969 191.148438 C 55.894531 190.949219 55.738281 190.824219 55.492188 190.664062 C 55.46875 190.644531 55.449219 190.644531 55.421875 190.613281 C 55.46875 190.613281 55.492188 190.0625 55.847656 189.398438 L 56.074219 188.882812 L 56.09375 188.796875 L 56.113281 188.777344 L 56.292969 188.507812 L 56.628906 187.945312 L 56.804688 187.660156 L 56.964844 187.53125 C 57.273438 187.214844 57.785156 186.75 58.429688 186.375 C 59.03125 185.988281 59.765625 185.660156 60.515625 185.304688 C 61.980469 184.574219 63.792969 183.773438 65.007812 182.300781 L 65.808594 181.480469 C 66.058594 181.082031 66.304688 180.699219 66.574219 180.320312 C 67.105469 179.539062 67.394531 178.808594 67.660156 178.097656 C 67.949219 177.367188 68.105469 176.671875 68.265625 176.011719 C 68.421875 175.339844 68.53125 174.695312 68.570312 174.09375 C 68.867188 171.652344 68.796875 169.78125 68.769531 168.476562 C 68.730469 167.183594 68.589844 166.429688 68.351562 166.378906 C 68.085938 166.339844 67.75 167.003906 67.324219 168.300781 C 66.898438 169.535156 66.542969 171.453125 65.96875 173.589844 C 65.839844 174.140625 65.683594 174.675781 65.453125 175.230469 C 65.277344 175.785156 65.078125 176.367188 64.792969 176.882812 C 64.523438 177.433594 64.238281 177.988281 63.902344 178.382812 L 63.4375 179.078125 L 62.585938 179.855469 C 61.785156 180.746094 60.496094 181.28125 58.984375 181.972656 C 57.449219 182.675781 55.617188 183.328125 53.90625 185.324219 L 53.621094 185.679688 L 53.441406 185.96875 L 53.085938 186.53125 L 52.929688 186.816406 L 52.757812 187.125 L 52.660156 187.300781 L 52.375 187.976562 L 52.105469 188.65625 L 51.890625 189.507812 C 51.730469 189.992188 51.710938 190.902344 51.910156 191.664062 C 52.066406 192.089844 52.265625 192.554688 52.511719 192.839844 C 52.78125 193.105469 53.046875 193.355469 53.304688 193.570312 C 53.75 193.859375 54.292969 194.175781 54.621094 194.332031 C 55.351562 194.6875 56.132812 194.996094 56.738281 195.332031 C 57.984375 196.082031 59.269531 196.664062 60.320312 197.398438 C 61.316406 198.199219 62.386719 198.800781 63.1875 199.554688 C 63.988281 200.335938 64.722656 200.996094 65.414062 201.601562 C 66.058594 202.261719 66.613281 202.84375 67.105469 203.289062 C 68.066406 204.199219 68.710938 204.625 68.90625 204.46875 Z M 71.488281 229.660156 C 71.667969 224.25 70.28125 221.167969 69.855469 221.277344 C 69.261719 221.363281 69.660156 224.546875 68.839844 229.394531 C 68.421875 231.765625 67.660156 234.574219 66.097656 237.242188 C 64.613281 239.933594 62.121094 242.246094 58.964844 243.691406 C 56.894531 244.550781 54.6875 244.957031 52.550781 245.171875 L 51 245.3125 L 50.839844 246.707031 C 50.640625 248.464844 50.820312 250.375 51.621094 251.976562 C 52.421875 253.605469 53.640625 254.695312 54.757812 255.496094 C 57.003906 257.117188 58.933594 258.027344 60.40625 259.046875 C 61.871094 260.023438 62.8125 261.003906 63.476562 261.675781 C 64.128906 262.476562 64.523438 262.921875 64.722656 262.8125 C 64.929688 262.714844 64.898438 262.140625 64.59375 261.121094 C 64.167969 260.074219 63.328125 258.628906 61.851562 257.246094 C 59.46875 254.714844 54.421875 252.6875 54.292969 248.644531 C 56.3125 248.425781 58.410156 248 60.457031 247.132812 C 64.433594 245.351562 67.550781 242.21875 69.15625 238.90625 C 70.816406 235.59375 71.382812 232.328125 71.488281 229.660156 Z M 70.757812 119.226562 C 71.777344 116.84375 71.757812 114.828125 71.636719 113.511719 C 71.460938 112.179688 71.242188 111.484375 70.976562 111.484375 C 70.726562 111.515625 70.460938 112.199219 70.195312 113.402344 C 69.855469 114.582031 69.460938 116.3125 68.394531 117.980469 C 67.34375 119.691406 65.574219 121.15625 62.992188 122.429688 C 60.496094 123.714844 57.273438 124.894531 54.195312 127.167969 C 53.394531 127.789062 52.621094 128.433594 52.085938 129.007812 L 51.640625 129.453125 C 51.53125 129.570312 51.574219 129.5 51.335938 129.769531 L 51.105469 130.035156 C 50.820312 130.390625 50.523438 130.785156 50.238281 131.191406 C 49.722656 132.03125 49.199219 132.992188 49.097656 134.277344 C 48.988281 135.589844 49.644531 136.945312 50.375 137.65625 C 51.859375 139.121094 53.285156 139.617188 54.550781 140.1875 C 55.777344 140.683594 56.933594 141.148438 57.984375 141.542969 C 60.011719 142.375 61.425781 143.195312 62.296875 143.945312 C 63.097656 144.6875 63.503906 145.351562 63.773438 145.261719 C 63.96875 145.191406 64.148438 144.421875 63.457031 143.085938 C 62.78125 141.789062 61.210938 140.367188 59.179688 139.191406 C 58.160156 138.597656 57.023438 138.015625 55.894531 137.390625 C 54.796875 136.789062 53.550781 136.074219 52.957031 135.34375 C 52.660156 134.988281 52.660156 134.808594 52.691406 134.542969 C 52.710938 134.257812 52.929688 133.742188 53.304688 133.238281 C 53.492188 132.960938 53.691406 132.695312 53.925781 132.4375 L 54.113281 132.230469 C 54.15625 132.210938 54.222656 132.121094 54.242188 132.101562 L 54.707031 131.675781 C 55.332031 131.011719 55.894531 130.609375 56.46875 130.164062 C 58.964844 128.292969 61.960938 127.046875 64.683594 125.457031 C 66.039062 124.675781 67.304688 123.714844 68.375 122.667969 C 69.410156 121.582031 70.28125 120.40625 70.757812 119.226562 Z M 96.847656 67.023438 C 96.847656 66.824219 96.046875 66.628906 94.554688 66.46875 C 93.089844 66.269531 90.894531 66.222656 88.351562 65.777344 C 85.796875 65.332031 83.234375 64.15625 81.078125 61.355469 C 78.425781 57.90625 76.960938 52.011719 73.449219 50.074219 C 70.085938 48.238281 63.851562 49.878906 60.25 50.28125 C 58.648438 50.480469 57.042969 50.746094 55.382812 51.460938 C 54.9375 51.6875 54.421875 51.972656 53.996094 52.242188 L 53.570312 52.566406 L 53.351562 52.726562 L 53.304688 52.773438 C 53.304688 52.773438 53.175781 52.882812 53.125 52.953125 L 52.996094 53.101562 C 52.660156 53.527344 52.265625 54.019531 52.066406 54.417969 L 51.550781 55.640625 C 50.554688 58.707031 50.355469 61.554688 49.96875 64.027344 C 49.792969 65.3125 49.523438 66.578125 49.414062 67.980469 C 49.394531 68.734375 49.347656 69.535156 49.75 70.53125 C 49.910156 71.007812 50.257812 71.402344 50.574219 71.777344 C 50.890625 72.046875 51.195312 72.292969 51.511719 72.539062 C 52.710938 73.269531 53.75 73.648438 54.667969 74.140625 C 55.617188 74.605469 56.488281 75.070312 57.292969 75.566406 C 60.585938 77.433594 62.230469 79.945312 62.652344 81.875 C 63.011719 82.78125 62.941406 83.742188 63.03125 84.316406 C 63.097656 84.898438 63.207031 85.234375 63.347656 85.234375 C 63.476562 85.234375 63.613281 84.9375 63.792969 84.363281 C 63.949219 83.792969 64.257812 83.011719 64.128906 81.746094 C 64.097656 81.101562 64.058594 80.410156 63.773438 79.71875 C 63.652344 79.363281 63.523438 78.984375 63.40625 78.582031 C 63.226562 78.226562 62.992188 77.867188 62.78125 77.492188 C 61.902344 75.960938 60.457031 74.605469 58.765625 73.359375 C 57.914062 72.738281 57.003906 72.132812 56.042969 71.582031 C 55.066406 71.007812 54.027344 70.492188 53.265625 69.960938 C 53.125 69.832031 52.976562 69.710938 52.847656 69.601562 C 52.847656 69.464844 52.730469 69.445312 52.710938 69.335938 C 52.660156 69.179688 52.660156 68.761719 52.710938 68.269531 C 52.847656 67.179688 53.125 65.953125 53.375 64.648438 C 53.867188 61.949219 54.175781 59.269531 54.996094 56.90625 L 55.332031 56.144531 C 55.449219 55.910156 55.578125 55.859375 55.667969 55.679688 L 55.6875 55.621094 L 55.867188 55.484375 L 56.3125 55.15625 C 56.519531 55.058594 56.667969 55 56.875 54.878906 C 57.933594 54.4375 59.289062 54.167969 60.695312 54.019531 C 64.632812 53.546875 68.589844 53.792969 72.578125 53.703125 C 74.113281 57.707031 76.445312 60.824219 78.8125 63.382812 C 79.136719 63.730469 79.476562 64.085938 79.792969 64.421875 L 79.917969 64.558594 L 80.078125 64.707031 L 80.148438 64.757812 L 80.414062 64.957031 L 80.9375 65.351562 C 81.296875 65.628906 81.5625 65.886719 82.007812 66.132812 C 82.453125 66.378906 82.878906 66.597656 83.324219 66.824219 C 85.035156 67.625 86.617188 67.84375 88.0625 68 C 90.933594 68.160156 93.089844 67.84375 94.582031 67.644531 C 96.046875 67.449219 96.847656 67.25 96.847656 67.023438 Z M 98.519531 309.519531 C 98.519531 309.253906 97.582031 308.988281 95.808594 308.738281 C 94.050781 308.582031 91.417969 308.414062 88.152344 309.203125 C 86.53125 309.648438 84.816406 310.273438 83.078125 311.457031 C 82.660156 311.746094 82.207031 312.050781 81.761719 312.367188 C 81.382812 312.675781 81.058594 313.011719 80.703125 313.335938 L 80.167969 313.832031 L 79.871094 314.078125 L 79.851562 314.117188 L 79.671875 314.296875 L 79.613281 314.386719 L 79.476562 314.5625 C 79.136719 315.039062 78.742188 315.523438 78.496094 316.007812 C 77.355469 317.945312 76.554688 320.011719 75.535156 321.664062 C 75.269531 322.167969 75.089844 322.285156 74.933594 322.570312 C 74.875 322.699219 74.539062 322.90625 74.328125 323.054688 L 74.179688 323.195312 L 73.972656 323.285156 C 73.351562 323.519531 72.261719 323.679688 71.191406 323.730469 C 66.769531 323.855469 62.347656 323.285156 58.308594 322.75 C 58.628906 317.636719 58.804688 313.316406 58.519531 310.234375 C 58.308594 306.78125 58.003906 304.785156 57.628906 304.785156 C 57.273438 304.785156 56.875 306.761719 56.488281 310.183594 C 56.222656 313.632812 55.492188 318.410156 54.847656 324.015625 L 54.667969 325.636719 L 56.273438 325.902344 C 60.714844 326.683594 65.703125 327.632812 71.402344 327.484375 C 72.6875 327.378906 73.953125 327.308594 75.496094 326.683594 L 76.050781 326.417969 L 76.089844 326.417969 L 76.316406 326.261719 L 76.425781 326.152344 L 76.605469 326.011719 C 76.851562 325.816406 77.03125 325.726562 77.296875 325.417969 C 77.851562 324.816406 78.425781 324.085938 78.671875 323.570312 C 79.941406 321.394531 80.613281 319.367188 81.503906 317.726562 C 81.699219 317.28125 81.96875 316.984375 82.1875 316.609375 L 82.253906 316.480469 L 82.304688 316.433594 L 82.484375 316.234375 L 82.988281 315.699219 C 83.324219 315.363281 83.660156 315.007812 83.988281 314.683594 C 84.304688 314.433594 84.640625 314.1875 84.945312 313.941406 C 86.152344 312.960938 87.617188 312.25 88.953125 311.746094 C 91.664062 310.738281 94.136719 310.5 95.832031 310.210938 C 97.542969 309.984375 98.519531 309.769531 98.519531 309.519531 Z M 115.589844 103.574219 C 116.035156 102.636719 112.5625 100.125 107.820312 97.96875 C 103.082031 96.011719 98.917969 95.210938 98.519531 96.171875 C 98.117188 97.128906 101.65625 99.484375 106.417969 101.441406 C 111.019531 103.554688 115.132812 104.503906 115.589844 103.574219 Z M 117.765625 97.257812 C 118.160156 96.308594 115.34375 94.210938 111.445312 92.570312 C 107.554688 90.921875 104.082031 90.386719 103.6875 91.324219 C 103.28125 92.285156 106.109375 94.390625 110 96.042969 C 113.886719 97.664062 117.359375 98.21875 117.765625 97.257812 Z M 131.894531 323.304688 C 132.578125 322.570312 129.492188 318.902344 125 315.632812 C 120.792969 312.546875 117.074219 309.519531 116.320312 310.339844 C 115.667969 311.035156 117.894531 314.988281 122.722656 318.617188 C 127.285156 321.949219 131.152344 324.085938 131.894531 323.304688 Z M 134.855469 318.121094 C 135.566406 317.410156 133.714844 314.257812 130.332031 311.230469 C 126.621094 308.117188 123.167969 307.34375 122.613281 308.117188 C 121.992188 309.027344 124.910156 311.5 127.886719 314.097656 C 131.042969 316.90625 134.121094 318.875 134.855469 318.121094 Z M 193.5 65.222656 C 193.566406 64.976562 192.5 64.332031 190.429688 63.285156 C 189.382812 62.800781 188.074219 62.199219 186.316406 61.859375 C 185.851562 61.800781 185.445312 61.664062 184.839844 61.714844 C 184.316406 61.734375 183.59375 61.734375 183.21875 61.882812 L 182.554688 62.070312 C 182.554688 62.070312 182.464844 62.089844 182.398438 62.109375 L 182.21875 62.175781 L 182.039062 62.285156 L 181.664062 62.515625 C 181.148438 62.820312 180.644531 63.136719 180.257812 63.53125 C 178.527344 65.066406 177.210938 66.964844 175.765625 68.761719 C 175.390625 69.207031 175.003906 69.644531 174.628906 70.085938 C 174.285156 70.445312 173.917969 70.828125 173.542969 71.203125 L 172.757812 71.757812 L 172.382812 72.074219 C 172.382812 72.074219 172.253906 72.164062 172.207031 72.183594 L 172.097656 72.222656 C 171.5625 72.511719 171.027344 72.828125 170.472656 73.113281 C 165.953125 75.359375 160.28125 76.226562 154.425781 75.585938 C 148.417969 74.824219 143.285156 71.363281 139.523438 67.683594 C 138.457031 66.667969 137.773438 65.867188 136.8125 64.757812 C 136.546875 64.472656 136.367188 64.222656 136.011719 63.90625 C 135.65625 63.621094 135.269531 63.335938 134.894531 63.085938 C 134.566406 62.910156 134.289062 62.800781 134.003906 62.664062 L 133.585938 62.464844 L 133.378906 62.375 L 133.074219 62.246094 L 132.933594 62.21875 C 126.394531 60.257812 123.4375 63.175781 119.121094 67.644531 C 117.695312 69.136719 116.984375 70.046875 117.164062 70.226562 C 117.320312 70.421875 118.320312 69.871094 120.03125 68.714844 C 127.53125 63.621094 130.828125 63.691406 137.03125 70.066406 C 139.058594 72.183594 141.503906 74.269531 144.304688 75.910156 C 147.132812 77.5625 150.40625 78.847656 153.941406 79.300781 C 160.460938 80.054688 166.953125 78.9375 172.058594 76.1875 C 172.671875 75.832031 173.292969 75.476562 173.898438 75.121094 L 174.015625 75.050781 L 174.054688 75 L 174.234375 74.894531 L 174.433594 74.734375 L 174.808594 74.429688 L 175.550781 73.804688 C 176.085938 73.269531 176.609375 72.71875 177.082031 72.183594 C 177.460938 71.667969 177.855469 71.15625 178.242188 70.640625 C 179.664062 68.644531 180.824219 66.773438 182.070312 65.46875 C 182.355469 65.09375 182.683594 64.886719 183 64.667969 L 183.21875 64.492188 L 183.335938 64.402344 L 183.980469 64.136719 C 184.464844 63.90625 184.691406 64.027344 185 63.957031 C 185.265625 63.867188 185.691406 63.9375 186.046875 63.9375 C 187.492188 64.027344 188.828125 64.371094 189.917969 64.667969 C 192.121094 65.261719 193.4375 65.46875 193.5 65.222656 Z M 260.195312 297.003906 C 260.800781 296.164062 257.308594 292.820312 252.390625 289.558594 C 247.382812 286.640625 242.910156 285 242.40625 285.890625 C 241.871094 286.78125 245.523438 289.882812 250.519531 292.800781 C 255.257812 295.976562 259.601562 297.84375 260.195312 297.003906 Z M 262.421875 290.328125 C 263.007812 289.488281 260.355469 286.503906 256.488281 283.683594 C 252.566406 280.976562 248.898438 279.464844 248.324219 280.324219 C 247.738281 281.191406 250.460938 284.082031 254.398438 286.800781 C 258.226562 289.597656 261.828125 291.179688 262.421875 290.328125 Z M 274.980469 113.15625 C 275.355469 112.851562 274.375 111.042969 272.289062 108.53125 C 270.152344 106.085938 266.785156 103.0625 262.808594 100.214844 C 258.820312 97.398438 255.128906 95.082031 252.441406 93.480469 C 249.71875 91.808594 247.917969 90.921875 247.589844 91.34375 C 247.273438 91.75 248.472656 93.351562 250.816406 95.566406 C 253.191406 97.773438 256.683594 100.480469 260.621094 103.257812 C 264.519531 106.066406 267.945312 108.597656 270.457031 110.46875 C 272.929688 112.375 274.574219 113.511719 274.980469 113.15625 Z M 238.597656 280.75 C 294.726562 252.363281 300.824219 179.394531 273.289062 129.125 C 233.710938 61.109375 128.847656 78.253906 93.710938 141.683594 C 72.332031 180.320312 84.707031 230.460938 114.558594 260.855469 C 145.777344 292.601562 199.128906 300.691406 238.597656 280.75 Z M 275.394531 103.4375 C 276.085938 102.707031 273.058594 98.839844 268.230469 95.28125 C 263.203125 91.703125 258.671875 90.367188 258.160156 91.207031 C 257.605469 92.125 261.542969 95.082031 266.054688 98.324219 C 270.65625 101.707031 274.691406 104.21875 275.394531 103.4375 Z M 322.542969 67.003906 C 322.652344 64.285156 322.609375 61.199219 322.523438 57.867188 L 322.503906 56.460938 L 321.027344 56.214844 C 318.226562 55.75 315.289062 55.34375 312.113281 55.34375 C 310.976562 55.324219 309.777344 55.503906 308.640625 55.59375 C 307.589844 55.75 306.59375 55.910156 305.59375 56.058594 C 304.917969 56.214844 304.226562 56.175781 303.613281 56.640625 C 303.328125 56.839844 302.960938 57.066406 302.722656 57.242188 L 302.140625 57.660156 C 301.359375 58.242188 300.605469 58.816406 299.855469 59.378906 C 296.847656 61.644531 294.3125 63.78125 291.996094 64.976562 C 289.664062 66.242188 287.503906 66.894531 286.011719 67.429688 C 284.515625 67.914062 283.695312 68.289062 283.746094 68.554688 C 283.785156 68.820312 284.675781 68.910156 286.296875 68.839844 C 287.902344 68.761719 290.285156 68.484375 293.105469 67.398438 C 295.976562 66.289062 298.804688 64.242188 301.871094 62.199219 C 302.652344 61.664062 303.457031 61.109375 304.257812 60.554688 L 304.878906 60.132812 C 305.027344 60.042969 305.128906 60.003906 305.238281 59.914062 C 305.386719 59.667969 305.808594 59.773438 306.125 59.707031 C 307.144531 59.558594 308.175781 59.417969 309.214844 59.269531 C 310.171875 59.242188 311.085938 59.082031 312.113281 59.113281 C 314.46875 59.113281 316.804688 59.351562 319.027344 59.617188 C 319.386719 65.332031 319.515625 70.53125 320.117188 74.320312 C 320.898438 78.292969 321.71875 80.566406 322.125 80.5 C 322.5625 80.449219 322.523438 78.007812 322.363281 74.003906 C 322.472656 72.003906 322.414062 69.761719 322.542969 67.003906 Z M 325.320312 131.035156 C 325.429688 130.191406 325.410156 130.003906 325.429688 129.304688 C 325.410156 128.628906 325.351562 127.9375 325.144531 127.226562 C 324.925781 126.496094 324.5 125.675781 323.859375 125.089844 C 323.234375 124.519531 322.542969 124.160156 321.96875 123.964844 C 320.808594 123.519531 319.917969 123.339844 319.136719 123.023438 C 318.355469 122.757812 317.652344 122.363281 317.121094 121.964844 C 316.40625 121.382812 315.675781 120.828125 314.980469 120.277344 C 312.507812 118.210938 310.707031 115.757812 309.835938 113.425781 C 308.90625 111.109375 308.480469 109.003906 308.195312 107.53125 C 307.925781 106.066406 307.640625 105.246094 307.394531 105.246094 C 307.125 105.246094 306.910156 106.085938 306.71875 107.621094 C 306.59375 109.183594 306.613281 111.464844 307.324219 114.292969 C 308.015625 117.132812 309.867188 120.277344 312.757812 122.9375 C 313.449219 123.558594 314.132812 124.121094 314.84375 124.734375 C 315.785156 125.496094 316.753906 126.03125 317.800781 126.457031 C 318.832031 126.871094 319.878906 127.136719 320.582031 127.433594 C 321.34375 127.761719 321.363281 127.828125 321.542969 128.292969 C 321.878906 129.164062 321.542969 132.050781 321.097656 132.230469 C 321.097656 132.347656 320.828125 132.4375 320.632812 132.566406 C 320.1875 132.695312 319.761719 132.851562 319.347656 132.992188 C 318.496094 133.1875 316.871094 134.058594 316.425781 134.523438 L 315.894531 134.949219 L 315.824219 134.988281 L 315.675781 135.125 L 315.644531 135.148438 L 315.625 135.167969 L 315.515625 135.304688 L 315.269531 135.542969 C 314.980469 135.878906 314.664062 136.214844 314.378906 136.550781 C 313.773438 137.191406 313.222656 137.835938 312.667969 138.4375 C 311.707031 139.773438 310.835938 141.019531 310.015625 142.167969 C 308.621094 144.660156 307.570312 146.644531 307.214844 148.109375 C 306.75 149.574219 306.59375 150.421875 306.820312 150.53125 C 307.058594 150.667969 307.640625 150.015625 308.519531 148.75 C 309.332031 147.4375 310.660156 145.753906 312.171875 143.710938 C 313.042969 142.730469 314.003906 141.644531 315.003906 140.484375 C 315.554688 139.972656 316.140625 139.417969 316.734375 138.855469 C 317.03125 138.566406 317.316406 138.28125 317.625 137.996094 L 317.941406 137.679688 L 318.476562 137.300781 L 319.027344 136.90625 C 319.207031 136.789062 319.316406 136.808594 319.453125 136.75 L 319.851562 136.570312 L 320.433594 136.414062 C 320.898438 136.253906 321.363281 136.125 321.847656 135.988281 C 322.503906 135.699219 323.164062 135.453125 323.769531 134.769531 L 324.195312 134.324219 L 324.453125 133.832031 C 324.640625 133.496094 324.789062 133.167969 324.925781 132.832031 C 325.105469 132.210938 325.195312 131.65625 325.320312 131.035156 Z M 325.171875 253.753906 C 325.796875 251.492188 325.707031 249.316406 325.707031 247.21875 C 325.679688 246.308594 325.679688 245.382812 325.660156 244.492188 L 325.640625 242.976562 L 324.164062 242.640625 C 322.433594 242.265625 320.761719 241.773438 319.296875 241.109375 C 317.851562 240.398438 316.574219 239.527344 315.535156 238.527344 C 313.449219 236.53125 312.332031 234.019531 311.667969 231.796875 C 310.421875 227.296875 310.460938 224.191406 309.886719 224.191406 C 309.5 224.164062 308.5 227.148438 309.195312 232.347656 C 309.570312 234.902344 310.617188 238.105469 313.132812 240.863281 C 314.378906 242.21875 315.933594 243.394531 317.695312 244.332031 C 319.027344 244.996094 320.453125 245.488281 321.917969 245.886719 C 321.9375 246.359375 321.9375 246.804688 321.9375 247.269531 C 321.96875 249.355469 322.007812 251.273438 321.613281 252.828125 C 321.382812 253.667969 321.207031 254.179688 320.761719 254.933594 L 320.136719 255.941406 C 319.851562 256.226562 319.652344 256.535156 319.347656 256.78125 C 317.070312 258.964844 313.953125 260.359375 311.757812 262.316406 C 309.421875 264.257812 308.371094 266.71875 308.195312 268.371094 C 308.066406 269.230469 308.125 269.8125 308.195312 270.238281 C 308.265625 270.632812 308.371094 270.859375 308.5 270.878906 C 309.195312 271.039062 309.125 267.144531 313.378906 264.433594 C 315.425781 262.960938 318.515625 261.960938 321.679688 259.34375 C 322.078125 259.027344 322.433594 258.601562 322.808594 258.226562 L 322.878906 258.15625 L 322.925781 258.117188 L 323.054688 257.9375 L 323.164062 257.78125 L 323.371094 257.492188 L 323.769531 256.917969 C 324.324219 256.089844 324.898438 254.804688 325.171875 253.753906 Z M 326.28125 325.035156 C 326.835938 320.417969 326.480469 316.75 326.261719 314.238281 C 326.015625 311.746094 325.726562 310.339844 325.460938 310.339844 C 325.195312 310.339844 324.925781 311.746094 324.726562 314.257812 C 324.480469 316.519531 324.363281 319.773438 323.699219 323.5 C 320.097656 323.816406 315.894531 324.214844 311.757812 323.796875 C 311.261719 323.679688 310.886719 323.730469 310.261719 323.519531 L 309.371094 323.195312 L 309.214844 323.144531 L 309.195312 323.125 L 309.125 323.078125 L 308.144531 322.484375 C 307.976562 322.34375 307.839844 322.167969 307.660156 322.019531 C 307.285156 321.722656 307.125 321.257812 306.859375 320.863281 C 306.433594 319.902344 306.039062 318.527344 305.503906 317.125 C 305.214844 316.414062 304.832031 315.609375 304.472656 314.917969 C 304.078125 314.296875 303.792969 313.8125 303.277344 313.078125 C 301.210938 310.144531 298.359375 308.414062 295.628906 307.117188 C 292.839844 305.804688 290.058594 304.980469 287.367188 304.46875 C 281.964844 303.449219 276.976562 303.519531 272.882812 304.320312 C 268.796875 305.089844 265.699219 306.691406 263.878906 308.292969 C 262.898438 309.054688 262.472656 309.789062 262.136719 310.273438 C 261.800781 310.785156 261.671875 311.074219 261.78125 311.183594 C 261.867188 311.269531 262.164062 311.140625 262.671875 310.804688 C 263.164062 310.5 263.847656 309.847656 264.789062 309.453125 C 266.539062 308.433594 269.496094 307.316406 273.308594 306.941406 C 277.085938 306.515625 281.71875 306.722656 286.636719 307.851562 C 289.097656 308.414062 291.621094 309.222656 294.027344 310.410156 C 296.402344 311.585938 298.765625 313.140625 300.199219 315.207031 C 300.496094 315.632812 300.941406 316.363281 301.296875 316.925781 C 301.566406 317.480469 301.785156 317.945312 302.03125 318.5 C 302.515625 319.683594 302.851562 320.96875 303.542969 322.464844 C 304.277344 323.925781 305.613281 325.371094 307.015625 326.011719 L 307.53125 326.300781 L 307.640625 326.367188 L 307.699219 326.398438 L 307.730469 326.417969 L 307.90625 326.488281 L 307.925781 326.507812 L 308.175781 326.578125 L 309.085938 326.863281 C 309.679688 327.0625 310.578125 327.148438 311.28125 327.257812 C 316.734375 327.613281 321.167969 326.792969 325.085938 326.171875 L 326.144531 325.992188 Z M 328.417969 190.328125 C 329.417969 188.242188 329.082031 186.085938 328.667969 184.21875 L 328.371094 183.042969 L 326.953125 182.851562 L 326.144531 182.746094 C 322.859375 182.597656 320.078125 181.566406 317.890625 180.105469 C 317.355469 179.699219 316.851562 179.304688 316.359375 178.929688 C 315.914062 178.433594 315.488281 177.96875 315.089844 177.503906 C 314.21875 176.632812 313.667969 175.546875 312.972656 174.695312 C 310.660156 170.9375 309.304688 168.386719 308.769531 168.605469 C 308.34375 168.785156 308.796875 171.609375 310.660156 175.960938 C 311.242188 177.011719 311.707031 178.234375 312.617188 179.394531 C 313.0625 179.984375 313.507812 180.589844 313.984375 181.210938 C 314.558594 181.765625 315.179688 182.300781 315.804688 182.851562 C 318.316406 184.839844 321.769531 186.125 325.261719 186.414062 C 325.390625 187.351562 325.390625 188.171875 325.105469 188.777344 C 324.769531 189.617188 323.789062 190.378906 322.609375 191.019531 C 320.277344 192.285156 317.585938 193.355469 315.734375 194.996094 C 313.796875 196.578125 313.003906 198.605469 312.707031 199.929688 C 312.617188 201.175781 312.6875 201.886719 312.953125 201.957031 C 313.203125 202.023438 313.578125 201.421875 314.09375 200.285156 C 314.753906 199.394531 315.585938 198.089844 317.289062 197.089844 C 318.960938 195.992188 321.296875 195.351562 324.164062 194.035156 C 325.550781 193.394531 327.371094 192.414062 328.417969 190.328125 Z M 333.246094 301.71875 C 333.246094 311.300781 333.246094 322.167969 333.246094 331.796875 C 321.71875 332.0625 310.171875 332.816406 298.785156 330.835938 C 297.269531 320.21875 293.90625 310.835938 280.867188 311.390625 C 269.835938 311.855469 262.292969 322.503906 260.066406 332.578125 C 252.863281 332.578125 245.632812 332.578125 238.417969 332.578125 C 238.171875 323.035156 234.351562 313.832031 222.84375 313.566406 C 212.367188 313.316406 204.957031 321.097656 202.957031 330.710938 C 194.566406 331.085938 186.136719 331.300781 177.746094 331.976562 C 175.789062 322.808594 168.515625 316.253906 158.769531 317.144531 C 149.960938 317.925781 144.085938 324.511719 141.996094 332.488281 C 133.023438 331.550781 124.058594 331.085938 115.046875 330.957031 C 111.820312 310.449219 86.015625 316.214844 81.382812 332.578125 C 71.441406 332.578125 59.804688 332.578125 47.96875 332.578125 C 48.484375 321.542969 48.96875 310.539062 49.464844 299.515625 C 59.359375 297.664062 66.484375 290.597656 65.238281 279.820312 C 64.097656 270.078125 56.597656 262.632812 47.257812 261.160156 C 46.902344 254.488281 46.8125 247.238281 46.792969 241.375 C 47.082031 241.375 47.367188 241.375 47.683594 241.308594 C 70.816406 236.234375 69.066406 205.871094 47.238281 201.292969 C 46.507812 194.242188 46.683594 187.195312 46.773438 180.125 C 56.964844 178.632812 66.019531 171.292969 64.386719 160.113281 C 62.960938 150.15625 54.402344 144.125 44.960938 143.589844 C 44.429688 139.703125 43.875 135.859375 43.605469 131.941406 C 43.121094 124.140625 48.882812 124.320312 53.996094 121.628906 C 60.269531 118.289062 65.078125 112 65.898438 104.773438 C 67.484375 91.167969 57.984375 82.230469 45.496094 80.964844 C 44.765625 69.980469 44.792969 59.0625 45.496094 48.078125 C 57.984375 46.121094 71.382812 42.523438 83.628906 46.0625 C 84.640625 55.59375 91.960938 62.21875 102.101562 61.625 C 110.621094 61.109375 117.25 55.324219 118.003906 47.414062 C 125.148438 47.328125 132.292969 47.097656 139.453125 47.328125 C 140.058594 57.492188 146.597656 65.824219 157.609375 65.824219 C 167.960938 65.804688 174.71875 57.53125 176.300781 48.214844 C 183.308594 48.859375 190.320312 48.574219 197.328125 48.128906 C 198.148438 58.867188 205.738281 66.863281 217.195312 66.714844 C 228.8125 66.558594 236.441406 57.304688 238.09375 46.722656 C 246.148438 48.019531 254.261719 48.769531 262.453125 48.789062 C 262.652344 52.4375 263.164062 56.335938 265.558594 59.0625 C 268.992188 62.929688 274.265625 63.90625 279.222656 63.78125 C 288.542969 63.511719 296.933594 57.304688 299.269531 48.554688 C 309.867188 48.523438 320.433594 48.363281 331 47.457031 C 329.773438 60.042969 330.863281 72.628906 330.773438 85.253906 C 321.402344 86.945312 316.871094 95.371094 317.734375 104.949219 C 318.425781 112.515625 322.808594 121.3125 330.507812 122.429688 C 330.597656 129.144531 330.882812 135.839844 330.980469 142.550781 C 321.492188 143.304688 314.488281 150.066406 314.695312 160.25 C 314.894531 170.40625 322.699219 177.859375 332.199219 179.007812 C 332.375 186.816406 332.78125 194.621094 332.484375 202.421875 C 312.417969 206.621094 308.414062 234.792969 331.070312 236.589844 C 332.554688 244.976562 332.625 253.578125 331.863281 262.050781 C 320.363281 264.296875 313.082031 272.808594 314.914062 285.167969 C 316.316406 294.640625 324.195312 301.671875 333.246094 301.71875 " fill-opacity="1" fill-rule="nonzero"/><path fill="#ffff00" d="M 103.28125 168.65625 C 107.800781 154.683594 114.472656 144.242188 113.363281 143.589844 C 112.917969 143.324219 110.929688 145.707031 108.109375 149.820312 C 105.488281 154.042969 101.945312 160.113281 99.699219 167.558594 C 97.453125 175.011719 97.078125 182.050781 97.027344 187.054688 C 97.207031 192.019531 97.632812 195.082031 98.144531 195.113281 C 98.667969 195.113281 99.183594 192.058594 99.699219 187.152344 C 100.390625 182.347656 101.171875 175.675781 103.28125 168.65625 Z M 122.257812 133.722656 C 124.621094 131.121094 125.929688 128.414062 125.214844 127.652344 C 124.503906 126.921875 121.851562 128.5625 119.347656 131.371094 C 117.074219 134.1875 115.875 137.015625 116.699219 137.65625 C 117.5 138.332031 119.992188 136.550781 122.257812 133.722656 Z M 156.453125 212.851562 C 168.117188 216.054688 174.234375 139.972656 163.796875 127.851562 C 163.527344 127.386719 163.101562 126.960938 162.507812 126.632812 C 145.976562 118.089844 145.550781 151.261719 145.707031 160.46875 C 145.9375 171.472656 146.351562 182.597656 148.003906 193.480469 C 148.785156 198.773438 149.714844 210.984375 156.453125 212.851562 Z M 219.796875 147.554688 C 220.261719 142.679688 220.6875 134.832031 215.683594 131.902344 C 209.902344 128.523438 201.464844 134.859375 198.554688 139.507812 C 193.140625 148.148438 193.617188 157.847656 194.28125 167.675781 C 194.835938 175.566406 194.191406 183.347656 194.300781 191.21875 C 194.496094 202.183594 199.859375 215.738281 210.636719 203.023438 C 210.703125 202.933594 210.746094 202.84375 210.8125 202.777344 C 210.921875 202.648438 211.050781 202.507812 211.167969 202.332031 C 220.828125 187.855469 218.214844 164.335938 219.796875 147.554688 Z M 244.355469 259.71875 C 249.390625 255.605469 251.996094 252.511719 251.65625 252.152344 C 251.300781 251.757812 248.097656 254.113281 242.78125 257.582031 C 240.160156 259.363281 236.90625 261.269531 233.304688 263.335938 C 229.632812 265.324219 225.535156 267.371094 221.113281 269.171875 C 216.660156 270.921875 212.296875 272.214844 208.269531 273.125 C 206.253906 273.460938 204.332031 273.90625 202.511719 274.035156 C 201.601562 274.144531 200.730469 274.234375 199.878906 274.351562 C 199.039062 274.371094 198.21875 274.390625 197.4375 274.429688 C 191.292969 274.609375 187.226562 273.789062 187.136719 274.390625 C 187.066406 274.796875 190.667969 276.546875 197.367188 277.082031 C 198.199219 277.128906 199.058594 277.167969 199.980469 277.238281 C 200.871094 277.238281 201.800781 277.167969 202.78125 277.148438 C 204.71875 277.148438 206.765625 276.792969 208.914062 276.527344 C 213.21875 275.746094 217.839844 274.480469 222.507812 272.660156 C 227.140625 270.761719 231.34375 268.546875 235.035156 266.324219 C 238.6875 264.027344 241.871094 261.804688 244.355469 259.71875 Z M 251.550781 216.738281 C 255.128906 206.316406 257.464844 195.796875 251.636719 185.789062 C 250.765625 184.308594 248.570312 183.546875 247.078125 184.59375 C 240.289062 189.28125 238.507812 196.152344 236.300781 203.773438 C 232.550781 216.875 228.722656 227.792969 217.195312 236.058594 C 193.972656 252.757812 165.574219 248.179688 146.816406 227.5625 C 139.277344 219.277344 135.832031 208.273438 132.429688 197.863281 C 131.074219 193.710938 133.410156 183.882812 127.660156 181.945312 C 117.480469 178.503906 112.582031 186.304688 113.988281 195.707031 C 118.300781 224.746094 137.941406 252.894531 166.488281 261.695312 C 182.980469 266.808594 203.351562 262.714844 218.667969 255.652344 C 234.976562 248.128906 245.136719 232.902344 251.550781 216.738281 Z M 261.316406 142.859375 C 261.78125 142.679688 261.652344 141.039062 260.871094 138.527344 C 260.019531 136.074219 258.40625 132.742188 255.792969 129.628906 C 253.152344 126.5625 250.195312 124.429688 247.96875 123.074219 C 245.722656 121.828125 244.175781 121.3125 243.871094 121.738281 C 243.554688 122.164062 244.582031 123.429688 246.382812 125.210938 C 248.074219 127.007812 250.550781 129.304688 252.925781 132.082031 C 257.625 137.636719 260.246094 143.265625 261.316406 142.859375 Z M 267.5 132.496094 C 290.214844 173.894531 289.59375 227.148438 254.261719 261.429688 C 216.730469 297.875 152.089844 289.507812 117.210938 254.023438 C 82.414062 218.636719 80.414062 159.777344 115.074219 124.140625 C 142.550781 95.902344 187.582031 84.523438 224.960938 96.882812 C 243.226562 102.933594 257.929688 116.003906 267.5 132.496094 " fill-opacity="1" fill-rule="nonzero"/><path fill="#333333" d="M 247.609375 193.066406 C 249.898438 200.265625 247.589844 207.757812 245.117188 214.957031 C 238.171875 232.476562 226.742188 246.023438 208.734375 252.578125 C 189.582031 259.578125 168.644531 258.492188 151.476562 247.289062 C 139.859375 239.6875 133.230469 228.523438 127.640625 216.320312 C 125.128906 210.824219 123.039062 205.140625 121.457031 199.304688 C 120.792969 196.792969 120.40625 194.261719 120.347656 191.664062 C 120.230469 187.589844 125 185.808594 124.621094 190.863281 C 123.722656 202.886719 132.675781 220.792969 140.1875 229.964844 C 150.914062 243.019531 164.578125 251.273438 181.464844 253.09375 C 197.929688 254.871094 214.414062 247.21875 226.804688 237.015625 C 231.898438 232.835938 235.679688 226.496094 237.992188 220.40625 C 240.894531 212.851562 242.070312 199.976562 247.609375 193.066406 " fill-opacity="1" fill-rule="nonzero"/><path fill="#333333" d="M 212.902344 138.921875 C 213.8125 141.484375 213.296875 144.90625 213.128906 147.554688 C 212.8125 152.082031 211.992188 156.601562 211.675781 161.128906 C 210.832031 173.09375 212.347656 188.210938 205.578125 198.691406 C 201 203.824219 201.375 198.199219 201.066406 193.105469 C 200.800781 189.132812 200.980469 185.128906 201.15625 181.144531 C 201.710938 169.425781 197.949219 156.136719 202.90625 145.101562 C 203.351562 144.105469 211.347656 134.632812 212.902344 138.921875 " fill-opacity="1" fill-rule="nonzero"/><path fill="#333333" d="M 158.839844 132.300781 C 165.042969 138.597656 162.152344 158.578125 161.835938 166.144531 C 161.332031 178.589844 160.480469 191.703125 157.058594 203.773438 C 156.027344 201.332031 155.59375 198.464844 155.097656 195.953125 C 153.542969 187.886719 153.140625 179.5 152.742188 171.292969 C 152.605469 168.320312 151.734375 129.648438 158.839844 132.300781 " fill-opacity="1" fill-rule="nonzero"/><g clip-path="url(#d26fb73cf3)"><path fill="#000000" d="M 333.246094 331.796875 C 333.246094 322.167969 333.246094 311.300781 333.246094 301.71875 C 324.195312 301.671875 316.316406 294.640625 314.914062 285.167969 C 313.082031 272.808594 320.363281 264.296875 331.863281 262.050781 C 332.625 253.578125 332.554688 244.976562 331.070312 236.589844 C 308.414062 234.792969 312.417969 206.621094 332.484375 202.421875 C 332.78125 194.621094 332.375 186.816406 332.199219 179.007812 C 322.699219 177.859375 314.894531 170.40625 314.695312 160.25 C 314.488281 150.066406 321.492188 143.304688 330.980469 142.550781 C 330.882812 135.839844 330.597656 129.144531 330.507812 122.429688 C 322.808594 121.3125 318.425781 112.515625 317.734375 104.949219 C 316.871094 95.371094 321.402344 86.945312 330.773438 85.253906 C 330.863281 72.628906 329.773438 60.042969 331 47.457031 C 320.433594 48.363281 309.867188 48.523438 299.269531 48.554688 C 296.933594 57.304688 288.542969 63.511719 279.222656 63.78125 C 274.265625 63.90625 268.992188 62.929688 265.558594 59.0625 C 263.164062 56.335938 262.652344 52.4375 262.453125 48.789062 C 254.261719 48.769531 246.148438 48.019531 238.09375 46.722656 C 236.441406 57.304688 228.8125 66.558594 217.195312 66.714844 C 205.738281 66.863281 198.148438 58.867188 197.328125 48.128906 C 190.320312 48.574219 183.308594 48.859375 176.300781 48.214844 C 174.71875 57.53125 167.960938 65.804688 157.609375 65.824219 C 146.597656 65.824219 140.058594 57.492188 139.453125 47.328125 C 132.292969 47.097656 125.148438 47.328125 118.003906 47.414062 C 117.25 55.324219 110.621094 61.109375 102.101562 61.625 C 91.960938 62.21875 84.640625 55.59375 83.628906 46.0625 C 71.382812 42.523438 57.984375 46.121094 45.496094 48.078125 C 44.792969 59.0625 44.765625 69.980469 45.496094 80.964844 C 57.984375 82.230469 67.484375 91.167969 65.898438 104.773438 C 65.078125 112 60.269531 118.289062 53.996094 121.628906 C 48.882812 124.320312 43.121094 124.140625 43.605469 131.941406 C 43.875 135.859375 44.429688 139.703125 44.960938 143.589844 C 54.402344 144.125 62.960938 150.15625 64.386719 160.113281 C 66.019531 171.292969 56.964844 178.632812 46.773438 180.125 C 46.683594 187.195312 46.507812 194.242188 47.238281 201.292969 C 69.066406 205.871094 70.816406 236.234375 47.683594 241.308594 C 47.367188 241.375 47.082031 241.375 46.792969 241.375 C 46.8125 247.238281 46.902344 254.488281 47.257812 261.160156 C 56.597656 262.632812 64.097656 270.078125 65.238281 279.820312 C 66.484375 290.597656 59.359375 297.664062 49.464844 299.515625 C 48.96875 310.539062 48.484375 321.542969 47.96875 332.578125 C 59.804688 332.578125 71.441406 332.578125 81.382812 332.578125 C 86.015625 316.214844 111.820312 310.449219 115.046875 330.957031 C 124.058594 331.085938 133.023438 331.550781 141.996094 332.488281 C 144.085938 324.511719 149.960938 317.925781 158.769531 317.144531 C 168.515625 316.253906 175.789062 322.808594 177.746094 331.976562 C 186.136719 331.300781 194.566406 331.085938 202.957031 330.710938 C 204.957031 321.097656 212.367188 313.316406 222.84375 313.566406 C 234.351562 313.832031 238.171875 323.035156 238.417969 332.578125 C 245.632812 332.578125 252.863281 332.578125 260.066406 332.578125 C 262.292969 322.503906 269.835938 311.855469 280.867188 311.390625 C 293.90625 310.835938 297.269531 320.21875 298.785156 330.835938 C 310.171875 332.816406 321.71875 332.0625 333.246094 331.796875 Z M 336.542969 294.621094 C 339.964844 293.640625 341.746094 297.875 339.925781 300.027344 C 339.925781 310.210938 339.925781 329.710938 339.925781 333.953125 C 340.5 335.890625 339.5 338.402344 336.847656 338.402344 C 322.769531 338.53125 308.730469 339.777344 294.816406 336.910156 C 292.867188 336.484375 292.195312 334.890625 292.480469 333.367188 C 292.441406 333.199219 292.394531 333.042969 292.355469 332.835938 C 291.445312 325.28125 289.285156 314.542969 278.601562 318.585938 C 271.636719 321.238281 267.035156 328.375 266.234375 335.644531 C 266.074219 336.929688 265.34375 337.847656 264.410156 338.332031 C 263.847656 338.886719 263.074219 339.242188 262.046875 339.242188 C 253.152344 339.242188 235.351562 339.242188 235.351562 339.242188 C 233.5 339.242188 232.453125 338.105469 232.125 336.78125 C 231.859375 336.316406 231.699219 335.75 231.75 335.070312 C 231.96875 328.535156 231.769531 321.484375 223.519531 320.328125 C 215.683594 319.238281 209.921875 326.191406 209.210938 333.417969 C 209.050781 334.910156 208.113281 335.890625 206.984375 336.335938 C 206.449219 336.867188 205.71875 337.246094 204.757812 337.285156 C 194.367188 337.816406 183.980469 337.9375 173.609375 338.976562 C 170.386719 339.292969 169.601562 335.574219 171.246094 333.558594 C 167.890625 319.617188 149.765625 321.683594 148.023438 335.910156 C 147.777344 337.9375 146.113281 339.003906 144.480469 339.0625 C 144.066406 339.222656 143.601562 339.3125 143.015625 339.242188 C 132.648438 338.132812 122.277344 337.621094 111.867188 337.582031 C 109.335938 337.582031 108.308594 335.238281 108.753906 333.328125 C 108.734375 333.199219 108.664062 333.0625 108.644531 332.902344 C 106.378906 317.609375 88.933594 325.171875 87.28125 336.800781 C 86.953125 339.0625 84.964844 339.597656 83.285156 338.957031 C 82.878906 339.132812 82.382812 339.242188 81.828125 339.242188 C 70.707031 339.242188 44.011719 339.242188 44.011719 339.242188 C 40.867188 339.242188 39.964844 335.929688 41.253906 333.972656 C 41.804688 321.664062 42.339844 309.324219 42.894531 297.003906 C 42.984375 294.9375 44.605469 293.867188 46.210938 293.800781 C 46.683594 293.445312 47.238281 293.195312 47.902344 293.109375 C 65.296875 290.894531 59.210938 267.628906 44.011719 267.546875 C 41.628906 267.519531 40.558594 265.472656 40.828125 263.652344 C 40.738281 263.386719 40.699219 263.117188 40.679688 262.8125 C 40.183594 254.851562 40.113281 239.203125 40.113281 239.203125 C 40.113281 236.679688 42.25 235.59375 44.121094 235.929688 C 44.527344 235.445312 45.101562 235.039062 45.902344 234.859375 C 63.613281 230.996094 60.429688 209.71875 43.675781 207.402344 C 41.738281 207.136719 41.074219 205.644531 41.3125 204.160156 C 40.984375 203.714844 40.738281 203.160156 40.679688 202.507812 C 39.667969 194.015625 40.074219 185.484375 40.113281 176.941406 C 40.113281 174.410156 42.449219 173.390625 44.339844 173.824219 C 44.496094 173.785156 44.636719 173.746094 44.792969 173.71875 C 51.710938 172.769531 59.960938 168.425781 57.628906 160.023438 C 55.597656 152.707031 48.949219 149.730469 41.785156 150.265625 C 39.203125 150.460938 38.203125 148.148438 38.71875 146.199219 C 38.648438 145.992188 38.601562 145.816406 38.5625 145.597656 C 37.511719 138.121094 33.773438 125.496094 41.203125 120.046875 C 48.199219 114.867188 59.855469 113.53125 59.539062 102.203125 C 59.25 92.234375 51.78125 87.429688 42.339844 87.460938 C 40.410156 87.460938 39.136719 85.917969 39.007812 84.117188 C 37.976562 71.136719 37.976562 58.191406 39.007812 45.210938 C 39.113281 43.835938 39.878906 42.925781 40.847656 42.433594 C 41.273438 42.144531 41.757812 41.949219 42.339844 41.878906 C 56.847656 39.96875 72.488281 35.183594 86.886719 40.050781 C 87.171875 40.136719 87.417969 40.277344 87.636719 40.414062 C 89.023438 40.703125 90.199219 41.71875 90.171875 43.550781 C 90.109375 50.28125 94.15625 55.414062 101.253906 55 C 106.734375 54.664062 112.421875 51.152344 111.421875 44.992188 C 111.019531 42.472656 113.136719 40.851562 115.046875 40.8125 C 115.203125 40.792969 115.34375 40.761719 115.46875 40.761719 C 124.574219 40.722656 133.65625 40.277344 142.75 40.761719 C 144.6875 40.878906 145.757812 42.304688 145.9375 43.835938 C 146.023438 44.164062 146.09375 44.527344 146.09375 44.925781 C 145.867188 52.0625 149.339844 59.644531 157.609375 59.152344 C 165.644531 58.636719 169.871094 51.90625 169.980469 44.390625 C 170.027344 41.679688 172.699219 40.671875 174.628906 41.363281 C 182.910156 42.324219 191.183594 41.878906 199.484375 41.324219 C 200.78125 41.234375 201.671875 41.789062 202.175781 42.589844 C 203.195312 43.054688 203.957031 44.015625 203.9375 45.496094 C 203.710938 53.527344 208.410156 60.683594 217.195312 60.042969 C 226.210938 59.378906 231.382812 52.152344 231.75 43.550781 C 231.789062 42.214844 232.484375 41.277344 233.394531 40.761719 C 234.125 40.011719 235.214844 39.546875 236.507812 39.761719 C 245.957031 41.433594 255.507812 42.34375 265.113281 42.164062 C 266.699219 42.125 267.726562 43.035156 268.121094 44.191406 C 268.605469 44.695312 268.972656 45.410156 268.992188 46.328125 C 269.300781 53.238281 271.101562 57.957031 279.222656 57.105469 C 285.8125 56.421875 292.589844 52.347656 293.195312 45.210938 C 293.371094 43.144531 295.046875 42.078125 296.6875 42.007812 C 296.984375 41.949219 297.292969 41.878906 297.648438 41.878906 C 309.996094 41.878906 322.34375 41.789062 334.621094 40.476562 C 336.453125 40.296875 337.472656 41.382812 337.738281 42.71875 C 337.957031 43.195312 338.054688 43.71875 337.957031 44.390625 C 336.097656 58.90625 337.757812 73.429688 337.433594 88.011719 C 337.382812 89.773438 336.207031 90.8125 334.871094 91.128906 C 334.425781 91.394531 333.890625 91.59375 333.246094 91.613281 C 319.761719 92.304688 323.054688 117.625 332.644531 115.914062 C 334.445312 115.597656 335.828125 116.628906 336.453125 117.933594 C 336.867188 118.445312 337.136719 119.117188 337.136719 119.980469 C 337.1875 128.324219 337.652344 136.628906 337.699219 144.976562 C 337.699219 145.992188 337.332031 146.753906 336.78125 147.289062 C 336.34375 148.375 335.355469 149.214844 333.800781 149.148438 C 315.871094 148.355469 319.050781 173.054688 335.472656 172.5 C 337.652344 172.433594 338.71875 174.121094 338.699219 175.8125 C 338.769531 176.082031 338.808594 176.367188 338.808594 176.671875 C 338.9375 186.214844 339.679688 195.726562 339.074219 205.289062 C 338.964844 207.207031 337.652344 208.492188 335.742188 208.628906 C 320.671875 209.6875 315.359375 230.429688 334.089844 230.035156 C 336.34375 229.964844 337.402344 231.796875 337.292969 233.546875 C 337.292969 233.546875 337.292969 233.574219 337.292969 233.59375 C 339.324219 243.925781 339.410156 254.585938 338.253906 265.027344 C 338.027344 267.035156 336.421875 268.074219 334.851562 268.210938 C 334.601562 268.28125 334.355469 268.339844 334.089844 268.371094 C 325.796875 269.367188 319.316406 275.597656 321.542969 284.378906 C 323.34375 291.484375 328.882812 296.804688 336.542969 294.621094 " fill-opacity="1" fill-rule="nonzero"/></g><path fill="#000000" d="M 328.667969 184.21875 C 329.082031 186.085938 329.417969 188.242188 328.417969 190.328125 C 327.371094 192.414062 325.550781 193.394531 324.164062 194.035156 C 321.296875 195.351562 318.960938 195.992188 317.289062 197.089844 C 315.585938 198.089844 314.753906 199.394531 314.09375 200.285156 C 313.578125 201.421875 313.203125 202.023438 312.953125 201.957031 C 312.6875 201.886719 312.617188 201.175781 312.707031 199.929688 C 313.003906 198.605469 313.796875 196.578125 315.734375 194.996094 C 317.585938 193.355469 320.277344 192.285156 322.609375 191.019531 C 323.789062 190.378906 324.769531 189.617188 325.105469 188.777344 C 325.390625 188.171875 325.390625 187.351562 325.261719 186.414062 C 321.769531 186.125 318.316406 184.839844 315.804688 182.851562 C 315.179688 182.300781 314.558594 181.765625 313.984375 181.210938 C 313.507812 180.589844 313.0625 179.984375 312.617188 179.394531 C 311.707031 178.234375 311.242188 177.011719 310.660156 175.960938 C 308.796875 171.609375 308.34375 168.785156 308.769531 168.605469 C 309.304688 168.386719 310.660156 170.9375 312.972656 174.695312 C 313.667969 175.546875 314.21875 176.632812 315.089844 177.503906 C 315.488281 177.96875 315.914062 178.433594 316.359375 178.929688 C 316.851562 179.304688 317.355469 179.699219 317.890625 180.105469 C 320.078125 181.566406 322.859375 182.597656 326.144531 182.746094 L 326.953125 182.851562 L 328.371094 183.042969 L 328.667969 184.21875 " fill-opacity="1" fill-rule="nonzero"/><path fill="#000000" d="M 326.261719 314.238281 C 326.480469 316.75 326.835938 320.417969 326.28125 325.035156 L 326.144531 325.992188 L 325.085938 326.171875 C 321.167969 326.792969 316.734375 327.613281 311.28125 327.257812 C 310.578125 327.148438 309.679688 327.0625 309.085938 326.863281 L 308.175781 326.578125 L 307.925781 326.507812 L 307.90625 326.488281 L 307.730469 326.417969 L 307.699219 326.398438 L 307.640625 326.367188 L 307.53125 326.300781 L 307.015625 326.011719 C 305.613281 325.371094 304.277344 323.925781 303.542969 322.464844 C 302.851562 320.96875 302.515625 319.683594 302.03125 318.5 C 301.785156 317.945312 301.566406 317.480469 301.296875 316.925781 C 300.941406 316.363281 300.496094 315.632812 300.199219 315.207031 C 298.765625 313.140625 296.402344 311.585938 294.027344 310.410156 C 291.621094 309.222656 289.097656 308.414062 286.636719 307.851562 C 281.71875 306.722656 277.085938 306.515625 273.308594 306.941406 C 269.496094 307.316406 266.539062 308.433594 264.789062 309.453125 C 263.847656 309.847656 263.164062 310.5 262.671875 310.804688 C 262.164062 311.140625 261.867188 311.269531 261.78125 311.183594 C 261.671875 311.074219 261.800781 310.785156 262.136719 310.273438 C 262.472656 309.789062 262.898438 309.054688 263.878906 308.292969 C 265.699219 306.691406 268.796875 305.089844 272.882812 304.320312 C 276.976562 303.519531 281.964844 303.449219 287.367188 304.46875 C 290.058594 304.980469 292.839844 305.804688 295.628906 307.117188 C 298.359375 308.414062 301.210938 310.144531 303.277344 313.078125 C 303.792969 313.8125 304.078125 314.296875 304.472656 314.917969 C 304.832031 315.609375 305.214844 316.414062 305.503906 317.125 C 306.039062 318.527344 306.433594 319.902344 306.859375 320.863281 C 307.125 321.257812 307.285156 321.722656 307.660156 322.019531 C 307.839844 322.167969 307.976562 322.34375 308.144531 322.484375 L 309.125 323.078125 L 309.195312 323.125 L 309.214844 323.144531 L 309.371094 323.195312 L 310.261719 323.519531 C 310.886719 323.730469 311.261719 323.679688 311.757812 323.796875 C 315.894531 324.214844 320.097656 323.816406 323.699219 323.5 C 324.363281 319.773438 324.480469 316.519531 324.726562 314.257812 C 324.925781 311.746094 325.195312 310.339844 325.460938 310.339844 C 325.726562 310.339844 326.015625 311.746094 326.261719 314.238281 " fill-opacity="1" fill-rule="nonzero"/><path fill="#000000" d="M 325.707031 247.21875 C 325.707031 249.316406 325.796875 251.492188 325.171875 253.753906 C 324.898438 254.804688 324.324219 256.089844 323.769531 256.917969 L 323.371094 257.492188 L 323.164062 257.78125 L 323.054688 257.9375 L 322.925781 258.117188 L 322.878906 258.15625 L 322.808594 258.226562 C 322.433594 258.601562 322.078125 259.027344 321.679688 259.34375 C 318.515625 261.960938 315.425781 262.960938 313.378906 264.433594 C 309.125 267.144531 309.195312 271.039062 308.5 270.878906 C 308.371094 270.859375 308.265625 270.632812 308.195312 270.238281 C 308.125 269.8125 308.066406 269.230469 308.195312 268.371094 C 308.371094 266.71875 309.421875 264.257812 311.757812 262.316406 C 313.953125 260.359375 317.070312 258.964844 319.347656 256.78125 C 319.652344 256.535156 319.851562 256.226562 320.136719 255.941406 L 320.761719 254.933594 C 321.207031 254.179688 321.382812 253.667969 321.613281 252.828125 C 322.007812 251.273438 321.96875 249.355469 321.9375 247.269531 C 321.9375 246.804688 321.9375 246.359375 321.917969 245.886719 C 320.453125 245.488281 319.027344 244.996094 317.695312 244.332031 C 315.933594 243.394531 314.378906 242.21875 313.132812 240.863281 C 310.617188 238.105469 309.570312 234.902344 309.195312 232.347656 C 308.5 227.148438 309.5 224.164062 309.886719 224.191406 C 310.460938 224.191406 310.421875 227.296875 311.667969 231.796875 C 312.332031 234.019531 313.449219 236.53125 315.535156 238.527344 C 316.574219 239.527344 317.851562 240.398438 319.296875 241.109375 C 320.761719 241.773438 322.433594 242.265625 324.164062 242.640625 L 325.640625 242.976562 L 325.660156 244.492188 C 325.679688 245.382812 325.679688 246.308594 325.707031 247.21875 " fill-opacity="1" fill-rule="nonzero"/><path fill="#000000" d="M 325.429688 129.304688 C 325.410156 130.003906 325.429688 130.191406 325.320312 131.035156 C 325.195312 131.65625 325.105469 132.210938 324.925781 132.832031 C 324.789062 133.167969 324.640625 133.496094 324.453125 133.832031 L 324.195312 134.324219 L 323.769531 134.769531 C 323.164062 135.453125 322.503906 135.699219 321.847656 135.988281 C 321.363281 136.125 320.898438 136.253906 320.433594 136.414062 L 319.851562 136.570312 L 319.453125 136.75 C 319.316406 136.808594 319.207031 136.789062 319.027344 136.90625 L 318.476562 137.300781 L 317.941406 137.679688 L 317.625 137.996094 C 317.316406 138.28125 317.03125 138.566406 316.734375 138.855469 C 316.140625 139.417969 315.554688 139.972656 315.003906 140.484375 C 314.003906 141.644531 313.042969 142.730469 312.171875 143.710938 C 310.660156 145.753906 309.332031 147.4375 308.519531 148.75 C 307.640625 150.015625 307.058594 150.667969 306.820312 150.53125 C 306.59375 150.421875 306.75 149.574219 307.214844 148.109375 C 307.570312 146.644531 308.621094 144.660156 310.015625 142.167969 C 310.835938 141.019531 311.707031 139.773438 312.667969 138.4375 C 313.222656 137.835938 313.773438 137.191406 314.378906 136.550781 C 314.664062 136.214844 314.980469 135.878906 315.269531 135.542969 L 315.515625 135.304688 L 315.625 135.167969 L 315.644531 135.148438 L 315.675781 135.125 L 315.824219 134.988281 L 315.894531 134.949219 L 316.425781 134.523438 C 316.871094 134.058594 318.496094 133.1875 319.347656 132.992188 C 319.761719 132.851562 320.1875 132.695312 320.632812 132.566406 C 320.828125 132.4375 321.097656 132.347656 321.097656 132.230469 C 321.542969 132.050781 321.878906 129.164062 321.542969 128.292969 C 321.363281 127.828125 321.34375 127.761719 320.582031 127.433594 C 319.878906 127.136719 318.832031 126.871094 317.800781 126.457031 C 316.753906 126.03125 315.785156 125.496094 314.84375 124.734375 C 314.132812 124.121094 313.449219 123.558594 312.757812 122.9375 C 309.867188 120.277344 308.015625 117.132812 307.324219 114.292969 C 306.613281 111.464844 306.59375 109.183594 306.71875 107.621094 C 306.910156 106.085938 307.125 105.246094 307.394531 105.246094 C 307.640625 105.246094 307.925781 106.066406 308.195312 107.53125 C 308.480469 109.003906 308.90625 111.109375 309.835938 113.425781 C 310.707031 115.757812 312.507812 118.210938 314.980469 120.277344 C 315.675781 120.828125 316.40625 121.382812 317.121094 121.964844 C 317.652344 122.363281 318.355469 122.757812 319.136719 123.023438 C 319.917969 123.339844 320.808594 123.519531 321.96875 123.964844 C 322.542969 124.160156 323.234375 124.519531 323.859375 125.089844 C 324.5 125.675781 324.925781 126.496094 325.144531 127.226562 C 325.351562 127.9375 325.410156 128.628906 325.429688 129.304688 " fill-opacity="1" fill-rule="nonzero"/><path fill="#000000" d="M 322.523438 57.867188 C 322.609375 61.199219 322.652344 64.285156 322.542969 67.003906 C 322.414062 69.761719 322.472656 72.003906 322.363281 74.003906 C 322.523438 78.007812 322.5625 80.449219 322.125 80.5 C 321.71875 80.566406 320.898438 78.292969 320.117188 74.320312 C 319.515625 70.53125 319.386719 65.332031 319.027344 59.617188 C 316.804688 59.351562 314.46875 59.113281 312.113281 59.113281 C 311.085938 59.082031 310.171875 59.242188 309.214844 59.269531 C 308.175781 59.417969 307.144531 59.558594 306.125 59.707031 C 305.808594 59.773438 305.386719 59.667969 305.238281 59.914062 C 305.128906 60.003906 305.027344 60.042969 304.878906 60.132812 L 304.257812 60.554688 C 303.457031 61.109375 302.652344 61.664062 301.871094 62.199219 C 298.804688 64.242188 295.976562 66.289062 293.105469 67.398438 C 290.285156 68.484375 287.902344 68.761719 286.296875 68.839844 C 284.675781 68.910156 283.785156 68.820312 283.746094 68.554688 C 283.695312 68.289062 284.515625 67.914062 286.011719 67.429688 C 287.503906 66.894531 289.664062 66.242188 291.996094 64.976562 C 294.3125 63.78125 296.847656 61.644531 299.855469 59.378906 C 300.605469 58.816406 301.359375 58.242188 302.140625 57.660156 L 302.722656 57.242188 C 302.960938 57.066406 303.328125 56.839844 303.613281 56.640625 C 304.226562 56.175781 304.917969 56.214844 305.59375 56.058594 C 306.59375 55.910156 307.589844 55.75 308.640625 55.59375 C 309.777344 55.503906 310.976562 55.324219 312.113281 55.34375 C 315.289062 55.34375 318.226562 55.75 321.027344 56.214844 L 322.503906 56.460938 L 322.523438 57.867188 " fill-opacity="1" fill-rule="nonzero"/><path fill="#000000" d="M 268.230469 95.28125 C 273.058594 98.839844 276.085938 102.707031 275.394531 103.4375 C 274.691406 104.21875 270.65625 101.707031 266.054688 98.324219 C 261.542969 95.082031 257.605469 92.125 258.160156 91.207031 C 258.671875 90.367188 263.203125 91.703125 268.230469 95.28125 " fill-opacity="1" fill-rule="nonzero"/><path fill="#000000" d="M 254.261719 261.429688 C 289.59375 227.148438 290.214844 173.894531 267.5 132.496094 C 257.929688 116.003906 243.226562 102.933594 224.960938 96.882812 C 187.582031 84.523438 142.550781 95.902344 115.074219 124.140625 C 80.414062 159.777344 82.414062 218.636719 117.210938 254.023438 C 152.089844 289.507812 216.730469 297.875 254.261719 261.429688 Z M 273.289062 129.125 C 300.824219 179.394531 294.726562 252.363281 238.597656 280.75 C 199.128906 300.691406 145.777344 292.601562 114.558594 260.855469 C 84.707031 230.460938 72.332031 180.320312 93.710938 141.683594 C 128.847656 78.253906 233.710938 61.109375 273.289062 129.125 " fill-opacity="1" fill-rule="nonzero"/><path fill="#000000" d="M 272.289062 108.53125 C 274.375 111.042969 275.355469 112.851562 274.980469 113.15625 C 274.574219 113.511719 272.929688 112.375 270.457031 110.46875 C 267.945312 108.597656 264.519531 106.066406 260.621094 103.257812 C 256.683594 100.480469 253.191406 97.773438 250.816406 95.566406 C 248.472656 93.351562 247.273438 91.75 247.589844 91.34375 C 247.917969 90.921875 249.71875 91.808594 252.441406 93.480469 C 255.128906 95.082031 258.820312 97.398438 262.808594 100.214844 C 266.785156 103.0625 270.152344 106.085938 272.289062 108.53125 " fill-opacity="1" fill-rule="nonzero"/><path fill="#000000" d="M 256.488281 283.683594 C 260.355469 286.503906 263.007812 289.488281 262.421875 290.328125 C 261.828125 291.179688 258.226562 289.597656 254.398438 286.800781 C 250.460938 284.082031 247.738281 281.191406 248.324219 280.324219 C 248.898438 279.464844 252.566406 280.976562 256.488281 283.683594 " fill-opacity="1" fill-rule="nonzero"/><path fill="#000000" d="M 260.871094 138.527344 C 261.652344 141.039062 261.78125 142.679688 261.316406 142.859375 C 260.246094 143.265625 257.625 137.636719 252.925781 132.082031 C 250.550781 129.304688 248.074219 127.007812 246.382812 125.210938 C 244.582031 123.429688 243.554688 122.164062 243.871094 121.738281 C 244.175781 121.3125 245.722656 121.828125 247.96875 123.074219 C 250.195312 124.429688 253.152344 126.5625 255.792969 129.628906 C 258.40625 132.742188 260.019531 136.074219 260.871094 138.527344 " fill-opacity="1" fill-rule="nonzero"/><path fill="#000000" d="M 252.390625 289.558594 C 257.308594 292.820312 260.800781 296.164062 260.195312 297.003906 C 259.601562 297.84375 255.257812 295.976562 250.519531 292.800781 C 245.523438 289.882812 241.871094 286.78125 242.40625 285.890625 C 242.910156 285 247.382812 286.640625 252.390625 289.558594 " fill-opacity="1" fill-rule="nonzero"/><path fill="#000000" d="M 245.117188 214.957031 C 247.589844 207.757812 249.898438 200.265625 247.609375 193.066406 C 242.070312 199.976562 240.894531 212.851562 237.992188 220.40625 C 235.679688 226.496094 231.898438 232.835938 226.804688 237.015625 C 214.414062 247.21875 197.929688 254.871094 181.464844 253.09375 C 164.578125 251.273438 150.914062 243.019531 140.1875 229.964844 C 132.675781 220.792969 123.722656 202.886719 124.621094 190.863281 C 125 185.808594 120.230469 187.589844 120.347656 191.664062 C 120.40625 194.261719 120.792969 196.792969 121.457031 199.304688 C 123.039062 205.140625 125.128906 210.824219 127.640625 216.320312 C 133.230469 228.523438 139.859375 239.6875 151.476562 247.289062 C 168.644531 258.492188 189.582031 259.578125 208.734375 252.578125 C 226.742188 246.023438 238.171875 232.476562 245.117188 214.957031 Z M 251.636719 185.789062 C 257.464844 195.796875 255.128906 206.316406 251.550781 216.738281 C 245.136719 232.902344 234.976562 248.128906 218.667969 255.652344 C 203.351562 262.714844 182.980469 266.808594 166.488281 261.695312 C 137.941406 252.894531 118.300781 224.746094 113.988281 195.707031 C 112.582031 186.304688 117.480469 178.503906 127.660156 181.945312 C 133.410156 183.882812 131.074219 193.710938 132.429688 197.863281 C 135.832031 208.273438 139.277344 219.277344 146.816406 227.5625 C 165.574219 248.179688 193.972656 252.757812 217.195312 236.058594 C 228.722656 227.792969 232.550781 216.875 236.300781 203.773438 C 238.507812 196.152344 240.289062 189.28125 247.078125 184.59375 C 248.570312 183.546875 250.765625 184.308594 251.636719 185.789062 " fill-opacity="1" fill-rule="nonzero"/><path fill="#000000" d="M 251.65625 252.152344 C 251.996094 252.511719 249.390625 255.605469 244.355469 259.71875 C 241.871094 261.804688 238.6875 264.027344 235.035156 266.324219 C 231.34375 268.546875 227.140625 270.761719 222.507812 272.660156 C 217.839844 274.480469 213.21875 275.746094 208.914062 276.527344 C 206.765625 276.792969 204.71875 277.148438 202.78125 277.148438 C 201.800781 277.167969 200.871094 277.238281 199.980469 277.238281 C 199.058594 277.167969 198.199219 277.128906 197.367188 277.082031 C 190.667969 276.546875 187.066406 274.796875 187.136719 274.390625 C 187.226562 273.789062 191.292969 274.609375 197.4375 274.429688 C 198.21875 274.390625 199.039062 274.371094 199.878906 274.351562 C 200.730469 274.234375 201.601562 274.144531 202.511719 274.035156 C 204.332031 273.90625 206.253906 273.460938 208.269531 273.125 C 212.296875 272.214844 216.660156 270.921875 221.113281 269.171875 C 225.535156 267.371094 229.632812 265.324219 233.304688 263.335938 C 236.90625 261.269531 240.160156 259.363281 242.78125 257.582031 C 248.097656 254.113281 251.300781 251.757812 251.65625 252.152344 " fill-opacity="1" fill-rule="nonzero"/><path fill="#000000" d="M 241.515625 57.886719 C 241.515625 57.886719 241.515625 57.90625 241.488281 57.90625 L 241.515625 57.886719 " fill-opacity="1" fill-rule="nonzero"/><path fill="#000000" d="M 213.128906 147.554688 C 213.296875 144.90625 213.8125 141.484375 212.902344 138.921875 C 211.347656 134.632812 203.351562 144.105469 202.90625 145.101562 C 197.949219 156.136719 201.710938 169.425781 201.15625 181.144531 C 200.980469 185.128906 200.800781 189.132812 201.066406 193.105469 C 201.375 198.199219 201 203.824219 205.578125 198.691406 C 212.347656 188.210938 210.832031 173.09375 211.675781 161.128906 C 211.992188 156.601562 212.8125 152.082031 213.128906 147.554688 Z M 215.683594 131.902344 C 220.6875 134.832031 220.261719 142.679688 219.796875 147.554688 C 218.214844 164.335938 220.828125 187.855469 211.167969 202.332031 C 211.050781 202.507812 210.921875 202.648438 210.8125 202.777344 C 210.746094 202.84375 210.703125 202.933594 210.636719 203.023438 C 199.859375 215.738281 194.496094 202.183594 194.300781 191.21875 C 194.191406 183.347656 194.835938 175.566406 194.28125 167.675781 C 193.617188 157.847656 193.140625 148.148438 198.554688 139.507812 C 201.464844 134.859375 209.902344 128.523438 215.683594 131.902344 " fill-opacity="1" fill-rule="nonzero"/><path fill="#000000" d="M 190.429688 63.285156 C 192.5 64.332031 193.566406 64.976562 193.5 65.222656 C 193.4375 65.46875 192.121094 65.261719 189.917969 64.667969 C 188.828125 64.371094 187.492188 64.027344 186.046875 63.9375 C 185.691406 63.9375 185.265625 63.867188 185 63.957031 C 184.691406 64.027344 184.464844 63.90625 183.980469 64.136719 L 183.335938 64.402344 L 183.21875 64.492188 L 183 64.667969 C 182.683594 64.886719 182.355469 65.09375 182.070312 65.46875 C 180.824219 66.773438 179.664062 68.644531 178.242188 70.640625 C 177.855469 71.15625 177.460938 71.667969 177.082031 72.183594 C 176.609375 72.71875 176.085938 73.269531 175.550781 73.804688 L 174.808594 74.429688 L 174.433594 74.734375 L 174.234375 74.894531 L 174.054688 75 L 174.015625 75.050781 L 173.898438 75.121094 C 173.292969 75.476562 172.671875 75.832031 172.058594 76.1875 C 166.953125 78.9375 160.460938 80.054688 153.941406 79.300781 C 150.40625 78.847656 147.132812 77.5625 144.304688 75.910156 C 141.503906 74.269531 139.058594 72.183594 137.03125 70.066406 C 130.828125 63.691406 127.53125 63.621094 120.03125 68.714844 C 118.320312 69.871094 117.320312 70.421875 117.164062 70.226562 C 116.984375 70.046875 117.695312 69.136719 119.121094 67.644531 C 123.4375 63.175781 126.394531 60.257812 132.933594 62.21875 L 133.074219 62.246094 L 133.378906 62.375 L 133.585938 62.464844 L 134.003906 62.664062 C 134.289062 62.800781 134.566406 62.910156 134.894531 63.085938 C 135.269531 63.335938 135.65625 63.621094 136.011719 63.90625 C 136.367188 64.222656 136.546875 64.472656 136.8125 64.757812 C 137.773438 65.867188 138.457031 66.667969 139.523438 67.683594 C 143.285156 71.363281 148.417969 74.824219 154.425781 75.585938 C 160.28125 76.226562 165.953125 75.359375 170.472656 73.113281 C 171.027344 72.828125 171.5625 72.511719 172.097656 72.222656 L 172.207031 72.183594 C 172.253906 72.164062 172.382812 72.074219 172.382812 72.074219 L 172.757812 71.757812 L 173.542969 71.203125 C 173.917969 70.828125 174.285156 70.445312 174.628906 70.085938 C 175.003906 69.644531 175.390625 69.207031 175.765625 68.761719 C 177.210938 66.964844 178.527344 65.066406 180.257812 63.53125 C 180.644531 63.136719 181.148438 62.820312 181.664062 62.515625 L 182.039062 62.285156 L 182.21875 62.175781 L 182.398438 62.109375 C 182.464844 62.089844 182.554688 62.070312 182.554688 62.070312 L 183.21875 61.882812 C 183.59375 61.734375 184.316406 61.734375 184.839844 61.714844 C 185.445312 61.664062 185.851562 61.800781 186.316406 61.859375 C 188.074219 62.199219 189.382812 62.800781 190.429688 63.285156 " fill-opacity="1" fill-rule="nonzero"/><path fill="#000000" d="M 161.835938 166.144531 C 162.152344 158.578125 165.042969 138.597656 158.839844 132.300781 C 151.734375 129.648438 152.605469 168.320312 152.742188 171.292969 C 153.140625 179.5 153.542969 187.886719 155.097656 195.953125 C 155.59375 198.464844 156.027344 201.332031 157.058594 203.773438 C 160.480469 191.703125 161.332031 178.589844 161.835938 166.144531 Z M 163.796875 127.851562 C 174.234375 139.972656 168.117188 216.054688 156.453125 212.851562 C 149.714844 210.984375 148.785156 198.773438 148.003906 193.480469 C 146.351562 182.597656 145.9375 171.472656 145.707031 160.46875 C 145.550781 151.261719 145.976562 118.089844 162.507812 126.632812 C 163.101562 126.960938 163.527344 127.386719 163.796875 127.851562 " fill-opacity="1" fill-rule="nonzero"/><path fill="#000000" d="M 130.332031 311.230469 C 133.714844 314.257812 135.566406 317.410156 134.855469 318.121094 C 134.121094 318.875 131.042969 316.90625 127.886719 314.097656 C 124.910156 311.5 121.992188 309.027344 122.613281 308.117188 C 123.167969 307.34375 126.621094 308.117188 130.332031 311.230469 " fill-opacity="1" fill-rule="nonzero"/><path fill="#000000" d="M 125 315.632812 C 129.492188 318.902344 132.578125 322.570312 131.894531 323.304688 C 131.152344 324.085938 127.285156 321.949219 122.722656 318.617188 C 117.894531 314.988281 115.667969 311.035156 116.320312 310.339844 C 117.074219 309.519531 120.792969 312.546875 125 315.632812 " fill-opacity="1" fill-rule="nonzero"/><path fill="#000000" d="M 125.214844 127.652344 C 125.929688 128.414062 124.621094 131.121094 122.257812 133.722656 C 119.992188 136.550781 117.5 138.332031 116.699219 137.65625 C 115.875 137.015625 117.074219 134.1875 119.347656 131.371094 C 121.851562 128.5625 124.503906 126.921875 125.214844 127.652344 " fill-opacity="1" fill-rule="nonzero"/><path fill="#000000" d="M 111.445312 92.570312 C 115.34375 94.210938 118.160156 96.308594 117.765625 97.257812 C 117.359375 98.21875 113.886719 97.664062 110 96.042969 C 106.109375 94.390625 103.28125 92.285156 103.6875 91.324219 C 104.082031 90.386719 107.554688 90.921875 111.445312 92.570312 " fill-opacity="1" fill-rule="nonzero"/><path fill="#000000" d="M 107.820312 97.96875 C 112.5625 100.125 116.035156 102.636719 115.589844 103.574219 C 115.132812 104.503906 111.019531 103.554688 106.417969 101.441406 C 101.65625 99.484375 98.117188 97.128906 98.519531 96.171875 C 98.917969 95.210938 103.082031 96.011719 107.820312 97.96875 " fill-opacity="1" fill-rule="nonzero"/><path fill="#000000" d="M 113.363281 143.589844 C 114.472656 144.242188 107.800781 154.683594 103.28125 168.65625 C 101.171875 175.675781 100.390625 182.347656 99.699219 187.152344 C 99.183594 192.058594 98.667969 195.113281 98.144531 195.113281 C 97.632812 195.082031 97.207031 192.019531 97.027344 187.054688 C 97.078125 182.050781 97.453125 175.011719 99.699219 167.558594 C 101.945312 160.113281 105.488281 154.042969 108.109375 149.820312 C 110.929688 145.707031 112.917969 143.324219 113.363281 143.589844 " fill-opacity="1" fill-rule="nonzero"/><path fill="#000000" d="M 95.808594 308.738281 C 97.582031 308.988281 98.519531 309.253906 98.519531 309.519531 C 98.519531 309.769531 97.542969 309.984375 95.832031 310.210938 C 94.136719 310.5 91.664062 310.738281 88.953125 311.746094 C 87.617188 312.25 86.152344 312.960938 84.945312 313.941406 C 84.640625 314.1875 84.304688 314.433594 83.988281 314.683594 C 83.660156 315.007812 83.324219 315.363281 82.988281 315.699219 L 82.484375 316.234375 L 82.304688 316.433594 L 82.253906 316.480469 L 82.1875 316.609375 C 81.96875 316.984375 81.699219 317.28125 81.503906 317.726562 C 80.613281 319.367188 79.941406 321.394531 78.671875 323.570312 C 78.425781 324.085938 77.851562 324.816406 77.296875 325.417969 C 77.03125 325.726562 76.851562 325.816406 76.605469 326.011719 L 76.425781 326.152344 L 76.316406 326.261719 L 76.089844 326.417969 L 76.050781 326.417969 L 75.496094 326.683594 C 73.953125 327.308594 72.6875 327.378906 71.402344 327.484375 C 65.703125 327.632812 60.714844 326.683594 56.273438 325.902344 L 54.667969 325.636719 L 54.847656 324.015625 C 55.492188 318.410156 56.222656 313.632812 56.488281 310.183594 C 56.875 306.761719 57.273438 304.785156 57.628906 304.785156 C 58.003906 304.785156 58.308594 306.78125 58.519531 310.234375 C 58.804688 313.316406 58.628906 317.636719 58.308594 322.75 C 62.347656 323.285156 66.769531 323.855469 71.191406 323.730469 C 72.261719 323.679688 73.351562 323.519531 73.972656 323.285156 L 74.179688 323.195312 L 74.328125 323.054688 C 74.539062 322.90625 74.875 322.699219 74.933594 322.570312 C 75.089844 322.285156 75.269531 322.167969 75.535156 321.664062 C 76.554688 320.011719 77.355469 317.945312 78.496094 316.007812 C 78.742188 315.523438 79.136719 315.039062 79.476562 314.5625 L 79.613281 314.386719 L 79.671875 314.296875 L 79.851562 314.117188 L 79.871094 314.078125 L 80.167969 313.832031 L 80.703125 313.335938 C 81.058594 313.011719 81.382812 312.675781 81.761719 312.367188 C 82.207031 312.050781 82.660156 311.746094 83.078125 311.457031 C 84.816406 310.273438 86.53125 309.648438 88.152344 309.203125 C 91.417969 308.414062 94.050781 308.582031 95.808594 308.738281 " fill-opacity="1" fill-rule="nonzero"/><path fill="#000000" d="M 94.554688 66.46875 C 96.046875 66.628906 96.847656 66.824219 96.847656 67.023438 C 96.847656 67.25 96.046875 67.449219 94.582031 67.644531 C 93.089844 67.84375 90.933594 68.160156 88.0625 68 C 86.617188 67.84375 85.035156 67.625 83.324219 66.824219 C 82.878906 66.597656 82.453125 66.378906 82.007812 66.132812 C 81.5625 65.886719 81.296875 65.628906 80.9375 65.351562 L 80.414062 64.957031 L 80.148438 64.757812 L 80.078125 64.707031 L 79.917969 64.558594 L 79.792969 64.421875 C 79.476562 64.085938 79.136719 63.730469 78.8125 63.382812 C 76.445312 60.824219 74.113281 57.707031 72.578125 53.703125 C 68.589844 53.792969 64.632812 53.546875 60.695312 54.019531 C 59.289062 54.167969 57.933594 54.4375 56.875 54.878906 C 56.667969 55 56.519531 55.058594 56.3125 55.15625 L 55.867188 55.484375 L 55.6875 55.621094 L 55.667969 55.679688 C 55.578125 55.859375 55.449219 55.910156 55.332031 56.144531 L 54.996094 56.90625 C 54.175781 59.269531 53.867188 61.949219 53.375 64.648438 C 53.125 65.953125 52.847656 67.179688 52.710938 68.269531 C 52.660156 68.761719 52.660156 69.179688 52.710938 69.335938 C 52.730469 69.445312 52.847656 69.464844 52.847656 69.601562 C 52.976562 69.710938 53.125 69.832031 53.265625 69.960938 C 54.027344 70.492188 55.066406 71.007812 56.042969 71.582031 C 57.003906 72.132812 57.914062 72.738281 58.765625 73.359375 C 60.457031 74.605469 61.902344 75.960938 62.78125 77.492188 C 62.992188 77.867188 63.226562 78.226562 63.40625 78.582031 C 63.523438 78.984375 63.652344 79.363281 63.773438 79.71875 C 64.058594 80.410156 64.097656 81.101562 64.128906 81.746094 C 64.257812 83.011719 63.949219 83.792969 63.792969 84.363281 C 63.613281 84.9375 63.476562 85.234375 63.347656 85.234375 C 63.207031 85.234375 63.097656 84.898438 63.03125 84.316406 C 62.941406 83.742188 63.011719 82.78125 62.652344 81.875 C 62.230469 79.945312 60.585938 77.433594 57.292969 75.566406 C 56.488281 75.070312 55.617188 74.605469 54.667969 74.140625 C 53.75 73.648438 52.710938 73.269531 51.511719 72.539062 C 51.195312 72.292969 50.890625 72.046875 50.574219 71.777344 C 50.257812 71.402344 49.910156 71.007812 49.75 70.53125 C 49.347656 69.535156 49.394531 68.734375 49.414062 67.980469 C 49.523438 66.578125 49.792969 65.3125 49.96875 64.027344 C 50.355469 61.554688 50.554688 58.707031 51.550781 55.640625 L 52.066406 54.417969 C 52.265625 54.019531 52.660156 53.527344 52.996094 53.101562 L 53.125 52.953125 C 53.175781 52.882812 53.304688 52.773438 53.304688 52.773438 L 53.351562 52.726562 L 53.570312 52.566406 L 53.996094 52.242188 C 54.421875 51.972656 54.9375 51.6875 55.382812 51.460938 C 57.042969 50.746094 58.648438 50.480469 60.25 50.28125 C 63.851562 49.878906 70.085938 48.238281 73.449219 50.074219 C 76.960938 52.011719 78.425781 57.90625 81.078125 61.355469 C 83.234375 64.15625 85.796875 65.332031 88.351562 65.777344 C 90.894531 66.222656 93.089844 66.269531 94.554688 66.46875 " fill-opacity="1" fill-rule="nonzero"/><path fill="#000000" d="M 71.636719 113.511719 C 71.757812 114.828125 71.777344 116.84375 70.757812 119.226562 C 70.28125 120.40625 69.410156 121.582031 68.375 122.667969 C 67.304688 123.714844 66.039062 124.675781 64.683594 125.457031 C 61.960938 127.046875 58.964844 128.292969 56.46875 130.164062 C 55.894531 130.609375 55.332031 131.011719 54.707031 131.675781 L 54.242188 132.101562 C 54.222656 132.121094 54.15625 132.210938 54.113281 132.230469 L 53.925781 132.4375 C 53.691406 132.695312 53.492188 132.960938 53.304688 133.238281 C 52.929688 133.742188 52.710938 134.257812 52.691406 134.542969 C 52.660156 134.808594 52.660156 134.988281 52.957031 135.34375 C 53.550781 136.074219 54.796875 136.789062 55.894531 137.390625 C 57.023438 138.015625 58.160156 138.597656 59.179688 139.191406 C 61.210938 140.367188 62.78125 141.789062 63.457031 143.085938 C 64.148438 144.421875 63.96875 145.191406 63.773438 145.261719 C 63.503906 145.351562 63.097656 144.6875 62.296875 143.945312 C 61.425781 143.195312 60.011719 142.375 57.984375 141.542969 C 56.933594 141.148438 55.777344 140.683594 54.550781 140.1875 C 53.285156 139.617188 51.859375 139.121094 50.375 137.65625 C 49.644531 136.945312 48.988281 135.589844 49.097656 134.277344 C 49.199219 132.992188 49.722656 132.03125 50.238281 131.191406 C 50.523438 130.785156 50.820312 130.390625 51.105469 130.035156 L 51.335938 129.769531 C 51.574219 129.5 51.53125 129.570312 51.640625 129.453125 L 52.085938 129.007812 C 52.621094 128.433594 53.394531 127.789062 54.195312 127.167969 C 57.273438 124.894531 60.496094 123.714844 62.992188 122.429688 C 65.574219 121.15625 67.34375 119.691406 68.394531 117.980469 C 69.460938 116.3125 69.855469 114.582031 70.195312 113.402344 C 70.460938 112.199219 70.726562 111.515625 70.976562 111.484375 C 71.242188 111.484375 71.460938 112.179688 71.636719 113.511719 " fill-opacity="1" fill-rule="nonzero"/><path fill="#000000" d="M 69.855469 221.277344 C 70.28125 221.167969 71.667969 224.25 71.488281 229.660156 C 71.382812 232.328125 70.816406 235.59375 69.15625 238.90625 C 67.550781 242.21875 64.433594 245.351562 60.457031 247.132812 C 58.410156 248 56.3125 248.425781 54.292969 248.644531 C 54.421875 252.6875 59.46875 254.714844 61.851562 257.246094 C 63.328125 258.628906 64.167969 260.074219 64.59375 261.121094 C 64.898438 262.140625 64.929688 262.714844 64.722656 262.8125 C 64.523438 262.921875 64.128906 262.476562 63.476562 261.675781 C 62.8125 261.003906 61.871094 260.023438 60.40625 259.046875 C 58.933594 258.027344 57.003906 257.117188 54.757812 255.496094 C 53.640625 254.695312 52.421875 253.605469 51.621094 251.976562 C 50.820312 250.375 50.640625 248.464844 50.839844 246.707031 L 51 245.3125 L 52.550781 245.171875 C 54.6875 244.957031 56.894531 244.550781 58.964844 243.691406 C 62.121094 242.246094 64.613281 239.933594 66.097656 237.242188 C 67.660156 234.574219 68.421875 231.765625 68.839844 229.394531 C 69.660156 224.546875 69.261719 221.363281 69.855469 221.277344 " fill-opacity="1" fill-rule="nonzero"/><path fill="#000000" d="M 68.265625 202.402344 C 68.867188 203.578125 69.105469 204.289062 68.90625 204.46875 C 68.710938 204.625 68.066406 204.199219 67.105469 203.289062 C 66.613281 202.84375 66.058594 202.261719 65.414062 201.601562 C 64.722656 200.996094 63.988281 200.335938 63.1875 199.554688 C 62.386719 198.800781 61.316406 198.199219 60.320312 197.398438 C 59.269531 196.664062 57.984375 196.082031 56.738281 195.332031 C 56.132812 194.996094 55.351562 194.6875 54.621094 194.332031 C 54.292969 194.175781 53.75 193.859375 53.304688 193.570312 C 53.046875 193.355469 52.78125 193.105469 52.511719 192.839844 C 52.265625 192.554688 52.066406 192.089844 51.910156 191.664062 C 51.710938 190.902344 51.730469 189.992188 51.890625 189.507812 L 52.105469 188.65625 L 52.375 187.976562 L 52.660156 187.300781 L 52.757812 187.125 L 52.929688 186.816406 L 53.085938 186.53125 L 53.441406 185.96875 L 53.621094 185.679688 L 53.90625 185.324219 C 55.617188 183.328125 57.449219 182.675781 58.984375 181.972656 C 60.496094 181.28125 61.785156 180.746094 62.585938 179.855469 L 63.4375 179.078125 L 63.902344 178.382812 C 64.238281 177.988281 64.523438 177.433594 64.792969 176.882812 C 65.078125 176.367188 65.277344 175.785156 65.453125 175.230469 C 65.683594 174.675781 65.839844 174.140625 65.96875 173.589844 C 66.542969 171.453125 66.898438 169.535156 67.324219 168.300781 C 67.75 167.003906 68.085938 166.339844 68.351562 166.378906 C 68.589844 166.429688 68.730469 167.183594 68.769531 168.476562 C 68.796875 169.78125 68.867188 171.652344 68.570312 174.09375 C 68.53125 174.695312 68.421875 175.339844 68.265625 176.011719 C 68.105469 176.671875 67.949219 177.367188 67.660156 178.097656 C 67.394531 178.808594 67.105469 179.539062 66.574219 180.320312 C 66.304688 180.699219 66.058594 181.082031 65.808594 181.480469 L 65.007812 182.300781 C 63.792969 183.773438 61.980469 184.574219 60.515625 185.304688 C 59.765625 185.660156 59.03125 185.988281 58.429688 186.375 C 57.785156 186.75 57.273438 187.214844 56.964844 187.53125 L 56.804688 187.660156 L 56.628906 187.945312 L 56.292969 188.507812 L 56.113281 188.777344 L 56.09375 188.796875 L 56.074219 188.882812 L 55.847656 189.398438 C 55.492188 190.0625 55.46875 190.613281 55.421875 190.613281 C 55.449219 190.644531 55.46875 190.644531 55.492188 190.664062 C 55.738281 190.824219 55.894531 190.949219 56.292969 191.148438 C 56.984375 191.523438 57.648438 191.839844 58.378906 192.304688 C 59.714844 193.195312 61.070312 193.957031 62.1875 194.886719 C 63.226562 195.90625 64.304688 196.734375 65.078125 197.703125 C 65.839844 198.664062 66.503906 199.554688 67.058594 200.3125 C 67.550781 201.117188 67.949219 201.816406 68.265625 202.402344 " fill-opacity="1" fill-rule="nonzero"/></svg>