<svg xmlns="http://www.w3.org/2000/svg" width="25" height="20.317" viewBox="0 0 25 20.317"><path id="iconmonstr-twitter-1" d="M25,4.653a10.24,10.24,0,0,1-2.946.807,5.137,5.137,0,0,0,2.255-2.838,10.275,10.275,0,0,1-3.257,1.245,5.132,5.132,0,0,0-8.741,4.677A14.561,14.561,0,0,1,1.741,3.187a5.136,5.136,0,0,0,1.586,6.848,5.107,5.107,0,0,1-2.322-.642,5.133,5.133,0,0,0,4.114,5.094,5.141,5.141,0,0,1-2.317.087,5.133,5.133,0,0,0,4.792,3.561A10.313,10.313,0,0,1,0,20.261a14.52,14.52,0,0,0,7.862,2.3A14.506,14.506,0,0,0,22.441,7.308,10.442,10.442,0,0,0,25,4.653Z" transform="translate(0 -2.248)" fill="black"></path></svg>